<svg width="35" height="35" viewBox="0 0 35 35" fill="none" xmlns="http://www.w3.org/2000/svg">
<g clip-path="url(#clip0)">
<path d="M16.7207 0.299197L5.05467 10.7986C4.80735 11.0226 4.66736 11.3353 4.66736 11.6666V18.6662C4.66736 19.1258 4.93801 19.5435 5.35799 19.7325C5.7803 19.9191 6.2726 19.8421 6.61325 19.5341L17.5 9.73701L28.3844 19.5341C28.7274 19.8421 29.2197 19.9215 29.6397 19.7325C30.062 19.5435 30.3326 19.1258 30.3326 18.6662V11.6666C30.3326 11.3353 30.1903 11.0226 29.9477 10.7986L18.2816 0.299197C17.8383 -0.099782 17.1617 -0.099782 16.7207 0.299197Z" fill="white"/>
<path d="M16.7207 15.465L5.05467 25.9645C4.80735 26.1884 4.66736 26.5011 4.66736 26.8324V33.832C4.66736 34.2917 4.93801 34.7093 5.35799 34.8983C5.7803 35.085 6.2726 35.008 6.61325 34.7L17.5 24.9028L28.3844 34.7C28.7274 35.008 29.2197 35.0873 29.6397 34.8983C30.062 34.7093 30.3326 34.2917 30.3326 33.832V26.8324C30.3326 26.5011 30.1903 26.1884 29.9477 25.9645L18.2816 15.465C17.8383 15.066 17.1617 15.066 16.7207 15.465Z" fill="white"/>
</g>
<defs>
<clipPath id="clip0">
<rect width="35" height="35" fill="white" transform="translate(0 34.9999) rotate(-90)"/>
</clipPath>
</defs>
</svg>
