<svg width="35" height="35" viewBox="0 0 35 35" fill="none" xmlns="http://www.w3.org/2000/svg">
<g clip-path="url(#clip0)">
<path d="M0.299258 18.2792L10.7987 29.9453C11.0227 30.1926 11.3353 30.3326 11.6666 30.3326H18.6663C19.1259 30.3326 19.5435 30.0619 19.7325 29.642C19.9192 29.2196 19.8422 28.7273 19.5342 28.3867L9.73707 17.4999L19.5342 6.61554C19.8422 6.27255 19.9215 5.78025 19.7325 5.36027C19.5435 4.93796 19.1259 4.66731 18.6663 4.66731H11.6666C11.3353 4.66731 11.0227 4.80963 10.7987 5.05229L0.299258 16.7183C-0.099721 17.1616 -0.099721 17.8383 0.299258 18.2792Z" fill="white"/>
<path d="M15.4651 18.2792L25.9645 29.9453C26.1885 30.1926 26.5012 30.3326 26.8325 30.3326H33.8321C34.2917 30.3326 34.7094 30.0619 34.8984 29.642C35.085 29.2196 35.008 28.7273 34.7 28.3867L24.9029 17.4999L34.7 6.61554C35.008 6.27255 35.0873 5.78025 34.8984 5.36027C34.7094 4.93796 34.2917 4.66731 33.8321 4.66731H26.8325C26.5012 4.66731 26.1885 4.80963 25.9645 5.05229L15.4651 16.7183C15.0661 17.1616 15.0661 17.8383 15.4651 18.2792Z" fill="white"/>
</g>
<defs>
<clipPath id="clip0">
<rect width="35" height="35" fill="white" transform="translate(35 34.9999) rotate(-180)"/>
</clipPath>
</defs>
</svg>
