<svg width="35" height="35" viewBox="0 0 35 35" fill="none" xmlns="http://www.w3.org/2000/svg">
<g clip-path="url(#clip0)">
<path d="M18.2789 34.7008L29.9449 24.2013C30.1922 23.9774 30.3322 23.6647 30.3322 23.3334V16.3338C30.3322 15.8741 30.0616 15.4565 29.6416 15.2675C29.2193 15.0808 28.727 15.1578 28.3863 15.4658L17.4996 25.2629L6.61519 15.4658C6.27221 15.1578 5.7799 15.0785 5.35993 15.2675C4.93762 15.4565 4.66696 15.8741 4.66696 16.3338V23.3334C4.66696 23.6647 4.80929 23.9774 5.05194 24.2013L16.718 34.7008C17.1613 35.0997 17.8379 35.0997 18.2789 34.7008Z" fill="white"/>
<path d="M18.2789 19.5349L29.9449 9.03551C30.1922 8.81152 30.3322 8.49887 30.3322 8.16756V1.16794C30.3322 0.708303 30.0616 0.29066 29.6416 0.10167C29.2193 -0.0849861 28.727 -0.0079904 28.3863 0.299993L17.4996 10.0971L6.61519 0.299993C6.27221 -0.0079904 5.7799 -0.0873193 5.35993 0.10167C4.93762 0.29066 4.66696 0.708303 4.66696 1.16794V8.16756C4.66696 8.49887 4.80929 8.81152 5.05194 9.03551L16.718 19.5349C17.1613 19.9339 17.8379 19.9339 18.2789 19.5349Z" fill="white"/>
</g>
<defs>
<clipPath id="clip0">
<rect width="35" height="35" fill="white" transform="translate(34.9996) rotate(90)"/>
</clipPath>
</defs>
</svg>
