<svg width="35" height="35" viewBox="0 0 35 35" fill="none" xmlns="http://www.w3.org/2000/svg">
<g clip-path="url(#clip0)">
<path d="M34.7007 16.7206L24.2013 5.05461C23.9773 4.80729 23.6647 4.6673 23.3334 4.6673H16.3337C15.8741 4.6673 15.4565 4.93795 15.2675 5.35793C15.0808 5.78024 15.1578 6.27254 15.4658 6.61319L25.2629 17.4999L15.4658 28.3843C15.1578 28.7273 15.0785 29.2196 15.2675 29.6396C15.4565 30.0619 15.8741 30.3326 16.3337 30.3326H23.3334C23.6647 30.3326 23.9773 30.1902 24.2013 29.9476L34.7007 18.2816C35.0997 17.8382 35.0997 17.1616 34.7007 16.7206Z" fill="white"/>
<path d="M19.5349 16.7206L9.03549 5.05461C8.8115 4.80729 8.49885 4.6673 8.16753 4.6673H1.16792C0.708273 4.6673 0.29063 4.93795 0.10164 5.35793C-0.0850167 5.78024 -0.00802093 6.27254 0.299962 6.61319L10.0971 17.4999L0.299962 28.3843C-0.00802093 28.7273 -0.0873499 29.2196 0.10164 29.6396C0.29063 30.0619 0.708273 30.3326 1.16792 30.3326H8.16753C8.49885 30.3326 8.8115 30.1902 9.03549 29.9476L19.5349 18.2816C19.9339 17.8382 19.9339 17.1616 19.5349 16.7206Z" fill="white"/>
</g>
<defs>
<clipPath id="clip0">
<rect width="35" height="35" fill="white"/>
</clipPath>
</defs>
</svg>
