<svg width="700" height="700" viewBox="0 0 700 700" fill="none" xmlns="http://www.w3.org/2000/svg">
<path d="M692.84 331.993L530.964 160.492C521.015 149.94 504.408 149.459 493.856 159.416C483.32 169.365 482.831 185.981 492.788 196.525L637.663 350.001L492.788 503.494C482.831 514.038 483.32 530.645 493.856 540.603C498.931 545.389 505.414 547.76 511.873 547.76C518.847 547.76 525.811 544.995 530.965 539.543L692.841 368.034C702.386 357.911 702.386 342.108 692.84 331.993Z" fill="#A5A5A5" fill-opacity="0.2"/>
<path d="M207.22 503.485L62.355 350L207.22 196.516C217.169 185.972 216.688 169.355 206.144 159.407C195.609 149.458 178.984 149.939 169.036 160.483L7.15999 331.984C-2.38577 342.099 -2.38577 357.91 7.15999 368.026L169.044 539.535C174.207 545.004 181.163 547.76 188.137 547.76C194.594 547.76 201.079 545.38 206.144 540.594C216.698 530.645 217.169 514.029 207.22 503.485Z" fill="#A5A5A5" fill-opacity="0.2"/>
<path d="M392.468 72.0471C378.144 69.8774 364.739 79.7116 362.551 94.0357L285.551 598.038C283.364 612.371 293.207 625.768 307.54 627.955C308.888 628.156 310.217 628.254 311.539 628.254C324.288 628.254 335.47 618.952 337.457 605.967L414.457 101.964C416.645 87.6304 406.801 74.2346 392.468 72.0471Z" fill="#A5A5A5" fill-opacity="0.2"/>
</svg>
