<svg width="80" height="113" viewBox="0 0 80 113" fill="none" xmlns="http://www.w3.org/2000/svg">
<g clip-path="url(#clip0)">
<path d="M62.69 4.17784H56.0542L62.9565 11.6709V15.2344H48.7363V11.0611H55.6386L48.7363 3.5681V0H62.6945L62.69 4.17784ZM45.913 4.17784H39.2682L46.1795 11.6709V15.2344H31.9548V11.0611H38.8571L31.9548 3.5681V0H45.913V4.17784ZM29.2987 4.34947H22.1389V10.8895H29.2987V15.239H17.0435V0H29.2987V4.34947Z" fill="white"/>
<path d="M7.28176 103.841L0 22.1945H80L72.7092 103.827L39.9503 112.906L7.28176 103.841Z" fill="#32373F"/>
<path d="M40 105.968L66.4709 98.6287L72.6957 28.87H40V105.968Z" fill="#464C56"/>
<path d="M40 58.4492H53.2535L54.166 48.1965H40V38.1878H65.1158L64.8763 40.8752L62.4145 68.4715H40V58.4492Z" fill="white"/>
<path d="M40.0542 84.4557H40.0091L28.856 81.4431L28.1423 73.4578H18.096L19.5009 89.18L40.0181 94.889H40.0768V84.4557H40.0542Z" fill="#EBEBEB"/>
<path d="M52.4043 68.0333L51.1982 81.434L40.0271 84.4466V94.8799L60.5579 89.189L60.7069 87.4953L62.4506 68.0288H52.4043V68.0333Z" fill="white"/>
<path d="M40.0362 38.1878V48.2011H15.851L15.6432 45.9518L15.1869 40.8752L14.9475 38.1878H40.0362ZM40 58.4492V68.4625H28.9735L28.7792 66.2132L28.323 61.1366L28.0836 58.4492H39.9955H40Z" fill="#EBEBEB"/>
</g>
<defs>
<clipPath id="clip0">
<rect width="80" height="112.906" fill="white"/>
</clipPath>
</defs>
</svg>
