<svg width="96" height="132" viewBox="0 0 96 132" fill="none" xmlns="http://www.w3.org/2000/svg">
<path fill-rule="evenodd" clip-rule="evenodd" d="M92.1644 27.7398C94.3224 29.1636 95.621 31.5762 95.621 34.1616V77.9541C95.621 80.5396 94.3224 82.9521 92.1644 84.376L54.8982 108.963L47.069 132L39.05 107.859L3.45668 84.376C1.29861 82.9521 0 80.5396 0 77.9541V34.1616C0 31.5762 1.29861 29.1636 3.45668 27.7398L43.5736 1.27178C46.1437 -0.423926 49.4773 -0.423929 52.0475 1.27178L92.1644 27.7398Z" fill="#17948C"/>
<path fill-rule="evenodd" clip-rule="evenodd" d="M33.7892 85.8354C33.7892 86.4636 33.8939 87.0693 34.1033 87.6526C34.3127 88.2359 34.6212 88.7519 35.029 89.2006C35.4367 89.6493 35.9271 90.0083 36.5001 90.2775C37.0732 90.5467 37.7234 90.6813 38.4507 90.6813C39.178 90.6813 39.8282 90.5467 40.4012 90.2775C40.9742 90.0083 41.4646 89.6493 41.8724 89.2006C42.2801 88.7519 42.5887 88.2359 42.798 87.6526C43.0074 87.0693 43.1121 86.4636 43.1121 85.8354C43.1121 85.2072 43.0074 84.6015 42.798 84.0182C42.5887 83.4349 42.2801 82.9189 41.8724 82.4702C41.4646 82.0215 40.9742 81.6625 40.4012 81.3933C39.8282 81.1241 39.178 80.9895 38.4507 80.9895C37.7234 80.9895 37.0732 81.1241 36.5001 81.3933C35.9271 81.6625 35.4367 82.0215 35.029 82.4702C34.6212 82.9189 34.3127 83.4349 34.1033 84.0182C33.8939 84.6015 33.7892 85.2072 33.7892 85.8354Z" fill="white"/>
<path fill-rule="evenodd" clip-rule="evenodd" d="M31.1237 88.7237C30.7895 87.7926 30.6235 86.8247 30.6235 85.837C30.6235 84.8493 30.7895 83.8814 31.1237 82.9502C31.4705 81.9842 31.9923 81.1062 32.6861 80.3427C33.3867 79.5717 34.2205 78.9682 35.154 78.5296C36.2067 78.0351 37.3272 77.8253 38.4507 77.8253C39.5742 77.8253 40.6948 78.0351 41.7474 78.5296C42.6809 78.9682 43.5147 79.5717 44.2153 80.3427C44.9091 81.1062 45.4309 81.9842 45.7777 82.9502C46.1119 83.8814 46.2779 84.8493 46.2779 85.837C46.2779 86.8247 46.1119 87.7926 45.7777 88.7237C45.4309 89.6897 44.9091 90.5677 44.2153 91.3312C43.5147 92.1022 42.6809 92.7058 41.7474 93.1443C40.6948 93.6389 39.5742 93.8486 38.4507 93.8486C37.3272 93.8486 36.2067 93.6389 35.154 93.1443C34.2205 92.7058 33.3867 92.1022 32.6861 91.3312C31.9923 90.5677 31.4705 89.6897 31.1237 88.7237ZM34.1033 87.6542C33.894 87.0709 33.7893 86.4651 33.7893 85.837C33.7893 85.2088 33.894 84.6031 34.1033 84.0198C34.3127 83.4364 34.6213 82.9205 35.029 82.4718C35.4368 82.0231 35.9271 81.6641 36.5002 81.3949C37.0732 81.1257 37.7234 80.9911 38.4507 80.9911C39.178 80.9911 39.8282 81.1257 40.4012 81.3949C40.9743 81.6641 41.4647 82.0231 41.8724 82.4718C42.2801 82.9205 42.5887 83.4364 42.7981 84.0198C43.0074 84.6031 43.1121 85.2088 43.1121 85.837C43.1121 86.4651 43.0074 87.0709 42.7981 87.6542C42.5887 88.2375 42.2801 88.7535 41.8724 89.2022C41.4647 89.6509 40.9743 90.0098 40.4012 90.279C39.8282 90.5483 39.178 90.6829 38.4507 90.6829C37.7234 90.6829 37.0732 90.5483 36.5002 90.279C35.9271 90.0098 35.4368 89.6509 35.029 89.2022C34.6213 88.7535 34.3127 88.2375 34.1033 87.6542Z" fill="white"/>
<path fill-rule="evenodd" clip-rule="evenodd" d="M52.5012 85.8354C52.5012 86.4636 52.6059 87.0693 52.8153 87.6526C53.0247 88.2359 53.3332 88.7519 53.741 89.2006C54.1487 89.6493 54.6391 90.0083 55.2121 90.2775C55.7852 90.5467 56.4353 90.6813 57.1626 90.6813C57.89 90.6813 58.5401 90.5467 59.1132 90.2775C59.6862 90.0083 60.1766 89.6493 60.5843 89.2006C60.9921 88.7519 61.3006 88.2359 61.51 87.6526C61.7194 87.0693 61.8241 86.4636 61.8241 85.8354C61.8241 85.2072 61.7194 84.6015 61.51 84.0182C61.3006 83.4349 60.9921 82.9189 60.5843 82.4702C60.1766 82.0215 59.6862 81.6625 59.1132 81.3933C58.5401 81.1241 57.89 80.9895 57.1626 80.9895C56.4353 80.9895 55.7852 81.1241 55.2121 81.3933C54.6391 81.6625 54.1487 82.0215 53.741 82.4702C53.3332 82.9189 53.0247 83.4349 52.8153 84.0182C52.6059 84.6015 52.5012 85.2072 52.5012 85.8354Z" fill="white"/>
<path fill-rule="evenodd" clip-rule="evenodd" d="M49.8355 88.7237C49.5013 87.7926 49.3353 86.8247 49.3353 85.837C49.3353 84.8493 49.5013 83.8814 49.8355 82.9502C50.1823 81.9842 50.7041 81.1062 51.3979 80.3427C52.0985 79.5717 52.9323 78.9682 53.8658 78.5296C54.9184 78.0351 56.039 77.8253 57.1625 77.8253C58.286 77.8253 59.4066 78.0351 60.4592 78.5296C61.3927 78.9682 62.2265 79.5717 62.9271 80.3427C63.6209 81.1062 64.1427 81.9842 64.4895 82.9502C64.8237 83.8814 64.9897 84.8493 64.9897 85.837C64.9897 86.8247 64.8237 87.7926 64.4895 88.7237C64.1427 89.6897 63.6209 90.5677 62.9271 91.3312C62.2265 92.1022 61.3927 92.7058 60.4592 93.1443C59.4066 93.6389 58.286 93.8486 57.1625 93.8486C56.039 93.8486 54.9184 93.6389 53.8658 93.1443C52.9323 92.7058 52.0985 92.1022 51.3979 91.3312C50.7041 90.5677 50.1823 89.6897 49.8355 88.7237ZM52.8151 87.6542C52.6058 87.0709 52.5011 86.4651 52.5011 85.837C52.5011 85.2088 52.6058 84.6031 52.8151 84.0198C53.0245 83.4364 53.3331 82.9205 53.7408 82.4718C54.1486 82.0231 54.6389 81.6641 55.212 81.3949C55.785 81.1257 56.4352 80.9911 57.1625 80.9911C57.8898 80.9911 58.54 81.1257 59.113 81.3949C59.6861 81.6641 60.1764 82.0231 60.5842 82.4718C60.9919 82.9205 61.3005 83.4364 61.5099 84.0198C61.7192 84.6031 61.8239 85.2088 61.8239 85.837C61.8239 86.4651 61.7192 87.0709 61.5099 87.6542C61.3005 88.2375 60.9919 88.7535 60.5842 89.2022C60.1764 89.6509 59.6861 90.0098 59.113 90.279C58.54 90.5483 57.8898 90.6829 57.1625 90.6829C56.4352 90.6829 55.785 90.5483 55.212 90.279C54.6389 90.0098 54.1486 89.6509 53.7408 89.2022C53.3331 88.7535 53.0245 88.2375 52.8151 87.6542Z" fill="white"/>
<path d="M33.0677 70.6745C32.6351 70.6745 32.2614 70.5172 31.9467 70.2025C31.6321 69.8879 31.4747 69.5142 31.4747 69.0816V30.968C31.4747 30.5353 31.6321 30.1617 31.9467 29.847C32.2614 29.5323 32.6351 29.375 33.0677 29.375H50.0595C53.7961 29.375 57.1198 30.0043 60.0304 31.263C62.941 32.5216 65.2617 34.3703 66.9923 36.8089C68.723 39.2476 69.6473 42.1779 69.7653 45.5998C69.844 47.8025 69.8833 49.2971 69.8833 50.0838C69.8833 50.8311 69.844 52.2667 69.7653 54.3907C69.5293 59.8187 67.6807 63.8896 64.2194 66.6036C60.7974 69.3176 56.1758 70.6745 50.3545 70.6745H33.0677ZM50.0595 59.1697C51.4362 59.1697 52.5375 58.7763 53.3635 57.9897C54.2288 57.1637 54.7008 55.964 54.7795 54.3907C54.8581 53.2501 54.8975 51.7751 54.8975 49.9658C54.8975 48.1171 54.8581 46.6618 54.7795 45.5998C54.7008 44.0265 54.1895 42.8465 53.2455 42.0599C52.3408 41.2732 51.1805 40.8799 49.7645 40.8799H46.2246V59.1697H50.0595Z" fill="white"/>
</svg>
