<svg width="236" height="52" viewBox="0 0 236 52" fill="none" xmlns="http://www.w3.org/2000/svg">
<path d="M23.1603 10.14H9.88534V42H23.1603C33.3303 42 39.7203 35.07 39.7203 25.98C39.7203 16.8 33.3303 10.14 23.1603 10.14ZM19.8753 33.09V18.87H22.2603C26.6703 18.87 29.5953 21.345 29.5953 25.98C29.5953 30.615 26.6703 33.09 22.2603 33.09H19.8753ZM74.5127 25.935C74.5127 16.35 67.2677 9.6 58.1777 9.6C49.1327 9.6 41.7527 16.35 41.7527 25.935C41.7527 35.52 49.1327 42.315 58.1777 42.315C67.1777 42.315 74.5127 35.52 74.5127 25.935ZM51.9227 25.935C51.9227 21.615 54.0827 18.825 58.1777 18.825C62.1827 18.825 64.3877 21.615 64.3877 25.935C64.3877 30.165 62.1827 33 58.1777 33C54.0827 33 51.9227 30.165 51.9227 25.935ZM109.302 25.935C109.302 16.35 102.057 9.6 92.9666 9.6C83.9216 9.6 76.5416 16.35 76.5416 25.935C76.5416 35.52 83.9216 42.315 92.9666 42.315C101.967 42.315 109.302 35.52 109.302 25.935ZM86.7116 25.935C86.7116 21.615 88.8716 18.825 92.9666 18.825C96.9716 18.825 99.1766 21.615 99.1766 25.935C99.1766 30.165 96.9716 33 92.9666 33C88.8716 33 86.7116 30.165 86.7116 25.935Z" fill="#17948C"/>
<path d="M123.966 14.4668C125.765 14.4668 127.354 14.8263 128.731 15.5453C130.137 16.2367 131.234 17.1078 132.021 18.1587V14.8401H136.871V38.0702C136.871 40.1719 136.421 42.0386 135.522 43.6703C134.622 45.3296 133.315 46.6293 131.599 47.5696C129.912 48.5099 127.888 48.98 125.526 48.98C122.377 48.98 119.762 48.2471 117.681 46.7814C115.601 45.3434 114.42 43.3799 114.139 40.891H118.905C119.27 42.0801 120.043 43.0342 121.224 43.7532C122.433 44.4999 123.867 44.8733 125.526 44.8733C127.466 44.8733 129.027 44.2925 130.208 43.131C131.417 41.9695 132.021 40.2826 132.021 38.0702V34.2538C131.206 35.3324 130.095 36.245 128.689 36.9916C127.312 37.7107 125.737 38.0702 123.966 38.0702C121.941 38.0702 120.085 37.5724 118.398 36.5768C116.74 35.5536 115.418 34.1432 114.434 32.3456C113.478 30.5204 113 28.4601 113 26.1648C113 23.8694 113.478 21.8368 114.434 20.0669C115.418 18.297 116.74 16.9281 118.398 15.9602C120.085 14.9646 121.941 14.4668 123.966 14.4668ZM132.021 26.2477C132.021 24.6714 131.684 23.3025 131.009 22.141C130.362 20.9795 129.505 20.0946 128.436 19.4861C127.368 18.8777 126.215 18.5735 124.978 18.5735C123.741 18.5735 122.588 18.8777 121.519 19.4861C120.451 20.0669 119.579 20.938 118.905 22.0995C118.258 23.2334 117.935 24.5885 117.935 26.1648C117.935 27.7411 118.258 29.1238 118.905 30.313C119.579 31.5022 120.451 32.4148 121.519 33.0508C122.616 33.6592 123.769 33.9634 124.978 33.9634C126.215 33.9634 127.368 33.6592 128.436 33.0508C129.505 32.4424 130.362 31.5575 131.009 30.396C131.684 29.2068 132.021 27.8241 132.021 26.2477Z" fill="#17948C"/>
<path d="M161.533 25.7085C161.533 26.5658 161.477 27.3401 161.364 28.0315H143.608C143.749 29.8567 144.438 31.3224 145.675 32.4286C146.912 33.5348 148.43 34.0879 150.23 34.0879C152.817 34.0879 154.644 33.0232 155.713 30.8938H160.9C160.197 32.9955 158.918 34.7239 157.062 36.079C155.235 37.4065 152.957 38.0702 150.23 38.0702C148.009 38.0702 146.012 37.5862 144.241 36.6183C142.498 35.6227 141.12 34.24 140.108 32.4701C139.124 30.6725 138.632 28.5984 138.632 26.2477C138.632 23.8971 139.109 21.8368 140.065 20.0669C141.05 18.2693 142.413 16.8866 144.156 15.9187C145.928 14.9508 147.952 14.4668 150.23 14.4668C152.423 14.4668 154.377 14.9369 156.092 15.8772C157.807 16.8175 159.143 18.1449 160.099 19.8595C161.055 21.5464 161.533 23.4961 161.533 25.7085ZM156.514 24.2151C156.486 22.4729 155.853 21.0763 154.616 20.0254C153.379 18.9745 151.846 18.4491 150.019 18.4491C148.36 18.4491 146.94 18.9745 145.759 20.0254C144.578 21.0486 143.875 22.4452 143.65 24.2151H156.514Z" fill="#17948C"/>
<path d="M168.921 18.698V31.3501C168.921 32.2074 169.118 32.8296 169.512 33.2168C169.934 33.5763 170.637 33.756 171.621 33.756H174.573V37.6968H170.777C168.612 37.6968 166.953 37.1991 165.8 36.2035C164.648 35.2079 164.071 33.5901 164.071 31.3501V18.698H161.33V14.8401H164.071V9.15707H168.921V14.8401H174.573V18.698H168.921Z" fill="#17948C"/>
<path d="M188.072 14.4668C189.843 14.4668 191.418 14.8401 192.796 15.5868C194.202 16.3335 195.298 17.4397 196.085 18.9054C196.901 20.3711 197.309 22.141 197.309 24.2151V37.6968H192.543V24.9203C192.543 22.8739 192.023 21.3114 190.982 20.2328C189.942 19.1266 188.522 18.5735 186.722 18.5735C184.923 18.5735 183.489 19.1266 182.421 20.2328C181.38 21.3114 180.86 22.8739 180.86 24.9203V37.6968H176.052V7H180.86V17.495C181.675 16.5271 182.702 15.7804 183.939 15.255C185.204 14.7295 186.582 14.4668 188.072 14.4668Z" fill="#17948C"/>
<path d="M221.788 25.7085C221.788 26.5658 221.732 27.3401 221.619 28.0315H203.863C204.004 29.8567 204.693 31.3224 205.93 32.4286C207.167 33.5348 208.685 34.0879 210.485 34.0879C213.071 34.0879 214.899 33.0232 215.968 30.8938H221.155C220.452 32.9955 219.173 34.7239 217.317 36.079C215.49 37.4065 213.212 38.0702 210.485 38.0702C208.263 38.0702 206.267 37.5862 204.496 36.6183C202.753 35.6227 201.375 34.24 200.363 32.4701C199.379 30.6725 198.886 28.5984 198.886 26.2477C198.886 23.8971 199.364 21.8368 200.32 20.0669C201.305 18.2693 202.668 16.8866 204.411 15.9187C206.183 14.9508 208.207 14.4668 210.485 14.4668C212.678 14.4668 214.632 14.9369 216.347 15.8772C218.062 16.8175 219.398 18.1449 220.354 19.8595C221.31 21.5464 221.788 23.4961 221.788 25.7085ZM216.769 24.2151C216.741 22.4729 216.108 21.0763 214.871 20.0254C213.634 18.9745 212.101 18.4491 210.274 18.4491C208.615 18.4491 207.195 18.9745 206.014 20.0254C204.833 21.0486 204.13 22.4452 203.905 24.2151H216.769Z" fill="#17948C"/>
<path d="M228.375 18.1587C229.078 16.9972 230.006 16.0984 231.159 15.4624C232.34 14.7987 233.731 14.4668 235.334 14.4668V19.3617H234.111C232.227 19.3617 230.793 19.8318 229.809 20.7721C228.853 21.7124 228.375 23.344 228.375 25.667V37.6968H223.567V14.8401H228.375V18.1587Z" fill="#17948C"/>
</svg>
