<svg width="80" height="120" viewBox="0 0 80 120" fill="none" xmlns="http://www.w3.org/2000/svg">
<g clip-path="url(#clip0)">
<path d="M20.004 119.976C31.0418 119.976 40 111.018 40 99.98V79.984H20.004C8.96621 79.984 0.00800323 88.9422 0.00800323 99.98C0.00800323 111.018 8.96621 119.976 20.004 119.976Z" fill="#292E34"/>
<path d="M0.00800323 59.9879C0.00800323 48.9501 8.96621 39.9919 20.004 39.9919H40V79.9839H20.004C8.96621 79.9839 0.00800323 71.0257 0.00800323 59.9879Z" fill="#32373F"/>
<path d="M0.00800323 19.996C0.00800323 8.95821 8.96621 0 20.004 0H40V39.992H20.004C8.96621 39.992 0.00800323 31.0338 0.00800323 19.996Z" fill="#DDDCDC"/>
<path d="M40 0H59.996C71.0338 0 79.992 8.95821 79.992 19.996C79.992 31.0338 71.0338 39.992 59.996 39.992H40V0Z" fill="white"/>
<path d="M79.992 59.9879C79.992 71.0257 71.0338 79.9839 59.996 79.9839C48.9582 79.9839 40 71.0257 40 59.9879C40 48.9501 48.9582 39.9919 59.996 39.9919C71.0338 39.9919 79.992 48.9501 79.992 59.9879Z" fill="#434851"/>
</g>
<defs>
<clipPath id="clip0">
<rect width="80" height="119.976" fill="white"/>
</clipPath>
</defs>
</svg>
