<svg width="80" height="111" viewBox="0 0 80 111" fill="none" xmlns="http://www.w3.org/2000/svg">
<g clip-path="url(#clip0)">
<path d="M52.5278 40.0225L41.4464 50.3402L31.16 29.5834L36.4739 17.6485C37.817 15.2678 40.0135 15.2364 41.3565 17.6485L52.5278 40.0225Z" fill="#CCCCCC"/>
<path d="M41.4509 50.3358L0 88.8894L31.1645 29.5834L41.4509 50.3358Z" fill="white"/>
<path d="M64.6783 24.2425C66.6637 22.3515 68.7075 22.9893 69.224 25.6754L80 88.3684L44.2583 109.826C43.0051 110.527 39.6811 110.801 39.6811 110.801C39.6811 110.801 36.6581 110.432 35.4992 109.795L0 88.8894L64.6783 24.2425Z" fill="#EFEFEF"/>
<path d="M31.1645 29.5834L0 88.8894L13.8888 2.2055C14.4099 -0.480633 15.9326 -0.754636 17.3071 1.62605L31.1645 29.5834Z" fill="#CCCCCC"/>
</g>
<defs>
<clipPath id="clip0">
<rect width="80" height="110.805" fill="white"/>
</clipPath>
</defs>
</svg>
