<svg width="110" height="110" viewBox="0 0 110 110" fill="none" xmlns="http://www.w3.org/2000/svg">
<g clip-path="url(#clip0)">
<path d="M107.925 50.099L59.8984 2.07455C57.1343 -0.691353 52.6483 -0.691353 49.8807 2.07455L39.9077 12.0476L52.5589 24.6989C55.4989 23.7054 58.8702 24.3719 61.2137 26.7154C63.5684 29.074 64.2301 32.4741 63.2126 35.4235L75.405 47.6163C78.3548 46.6001 81.7584 47.2575 84.1143 49.6173C87.407 52.9087 87.407 58.2433 84.1143 61.5368C80.8208 64.8308 75.4862 64.8308 72.1909 61.5368C69.7142 59.0576 69.1023 55.4202 70.3562 52.369L58.9858 40.9986L58.9845 70.9208C59.8087 71.3283 60.5616 71.8667 61.2137 72.5149C64.5064 75.8063 64.5064 81.1413 61.2137 84.4375C57.9202 87.7297 52.583 87.7297 49.2942 84.4375C46.0015 81.1413 46.0015 75.8068 49.2942 72.5154C50.0832 71.7259 51.021 71.1007 52.0532 70.6759V40.4749C51.0195 40.0529 50.0812 39.4273 49.2942 38.6354C46.7994 36.144 46.1996 32.4835 47.4779 29.4203L35.0066 16.9477L2.07539 49.8768C-0.691797 52.6453 -0.691797 57.1317 2.07539 59.898L50.1033 107.923C52.8683 110.69 57.3534 110.69 60.1219 107.923L107.925 60.121C110.691 57.3538 110.691 52.8649 107.925 50.099" fill="white"/>
</g>
<defs>
<clipPath id="clip0">
<rect width="110" height="110" fill="white"/>
</clipPath>
</defs>
</svg>
