<svg width="80" height="113" viewBox="0 0 80 113" fill="none" xmlns="http://www.w3.org/2000/svg">
<g clip-path="url(#clip0)">
<path d="M7.28036 103.372L0 22.0931H80L72.7116 103.359L39.9509 112.4L7.28036 103.372Z" fill="#32373F"/>
<path d="M40 105.49L66.472 98.1844L72.7007 28.7392H40V105.49Z" fill="#464C56"/>
<path d="M40 58.8844H26.7476L25.8322 48.6765H40V38.7078H14.8865L15.1265 41.3822L17.588 68.8527H40V58.8844ZM40 84.7736L39.956 84.7855L28.8022 81.7876L28.0891 73.8374H18.0356L19.4389 89.4896L39.9542 95.1582L40 95.1453V84.7736Z" fill="#EBEBEB"/>
<path d="M7.44327 0.00512695H12.5327V5.01009H17.1884V0.00512695H22.278V15.1615H17.1884V10.0864H12.5327V15.1615H7.44363L7.44327 0.00512695ZM28.9713 5.03145H24.4909V0.00512695H38.5442V5.03145H34.0616V15.1615H28.9714V5.03145H28.9713ZM40.7742 0.00512695H46.0814L49.346 5.33078L52.6074 0.00512695H57.9165V15.1615H52.8471V7.64903L49.3454 13.038H49.258L45.754 7.64903V15.1615H40.774V0.00512695H40.7742ZM60.4491 0.00512695H65.54V10.1519H72.6978V15.1615H60.4491V0.00512695Z" fill="white"/>
<path d="M39.9655 58.8844V68.8527H52.2982L51.1355 81.7813L39.9655 84.7818V95.1527L60.4971 89.4894L60.6473 87.8047L63.0011 61.5613L63.2455 58.8844H60.5469H39.9655ZM39.9655 38.7078V48.6765H64.1569L64.3575 46.4357L64.8138 41.3822L65.0535 38.7078H39.9655Z" fill="white"/>
</g>
<defs>
<clipPath id="clip0">
<rect width="80" height="112.405" fill="white"/>
</clipPath>
</defs>
</svg>
