<svg width="120" height="120" viewBox="0 0 120 120" fill="none" xmlns="http://www.w3.org/2000/svg">
<path d="M0 0H120V120H0V0Z" fill="#393E46"/>
<path d="M110.179 91.3803C109.3 85.905 105.73 81.308 95.1559 77.0191C91.4829 75.3308 87.3878 74.1218 86.1673 71.3384C85.7339 69.7187 85.6768 68.8061 85.9506 67.8251C86.7376 64.6426 90.5361 63.6502 93.5475 64.5628C95.4867 65.213 97.3232 66.7074 98.4297 69.0913C103.608 65.7378 103.597 65.7605 107.213 63.4564C105.89 61.4032 105.183 60.4563 104.316 59.5781C101.202 56.099 96.9582 54.3081 90.1711 54.445C88.9962 54.5933 87.81 54.7529 86.635 54.9013C83.2473 55.7568 80.019 57.5362 78.1255 59.9203C72.4449 66.3652 74.0647 77.6464 80.9772 82.2892C87.7871 87.3994 97.7909 88.5629 99.0684 93.3424C100.312 99.1941 94.7682 101.088 89.2586 100.415C85.1977 99.5706 82.9393 97.5059 80.4981 93.7531C76.0039 96.3538 76.0039 96.3538 71.3842 99.0116C72.4792 101.407 73.6312 102.491 75.4678 104.567C84.1598 113.384 105.913 112.951 109.814 99.6048C109.973 99.1484 111.023 96.0913 110.179 91.3803ZM65.2358 55.1521H54.0114C54.0114 64.8479 53.9659 74.4753 53.9659 84.1712C53.9659 90.3423 54.2853 96.0001 53.2815 97.7339C51.6389 101.144 47.3842 100.723 45.445 100.061C43.4716 99.0912 42.4678 97.711 41.3043 95.7605C40.985 95.2016 40.7454 94.7682 40.6654 94.7339C37.6199 96.5933 34.5856 98.4639 31.54 100.323C33.0572 103.437 35.2928 106.141 38.1559 107.897C42.4335 110.464 48.1826 111.251 54.1941 109.871C58.1066 108.73 61.4829 106.369 63.251 102.776C65.8061 98.0647 65.2586 92.3613 65.2358 86.0533C65.2928 75.7643 65.2358 65.4753 65.2358 55.1521Z" fill="white"/>
</svg>
