<svg width="700" height="700" viewBox="0 0 700 700" fill="none" xmlns="http://www.w3.org/2000/svg">
<g clip-path="url(#clip0)">
<path d="M664.102 116.666H35.8982C16.1533 116.666 0 132.82 0 152.563V547.436C0 567.178 16.1533 583.334 35.8982 583.334H664.103C683.845 583.334 700.001 567.181 700.001 547.436V152.563C700 132.82 683.847 116.666 664.102 116.666ZM650.631 143.588L370.65 353.59C365.616 357.421 357.889 359.818 349.999 359.782C342.11 359.818 334.384 357.421 329.349 353.59L49.3678 143.588H650.631ZM501.074 367.447L653.639 555.909C653.792 556.098 653.979 556.242 654.142 556.413H45.8582C46.0195 556.234 46.2082 556.098 46.3613 555.909L198.926 367.447C203.6 361.668 202.714 353.195 196.924 348.51C191.145 343.835 182.673 344.721 177.997 350.502L26.9227 537.124V160.415L313.204 375.126C323.965 383.141 337.057 386.668 349.997 386.704C362.92 386.676 376.023 383.149 386.791 375.126L673.072 160.415V537.122L522.002 350.502C517.326 344.723 508.845 343.834 503.074 348.51C497.286 353.184 496.397 361.668 501.074 367.447Z" fill="#A5A5A5" fill-opacity="0.2"/>
</g>
<defs>
<clipPath id="clip0">
<rect width="700" height="700" fill="white"/>
</clipPath>
</defs>
</svg>
