<svg width="182" height="44" viewBox="0 0 182 44" fill="none" xmlns="http://www.w3.org/2000/svg">
<path d="M39.229 30.9567C38.4277 30.9567 37.7539 30.6955 37.2075 30.173C36.6976 29.6132 36.4426 28.9228 36.4426 28.1018V12.0916C36.4426 9.74046 35.878 8.00509 34.7488 6.8855C33.6197 5.72858 32.1445 5.15013 30.3233 5.15013C28.4292 5.15013 26.863 5.82188 25.6245 7.16539C24.4225 8.50891 23.8215 10.2256 23.8215 12.3155H19.2867C19.2867 9.88974 19.7966 7.76251 20.8165 5.93384C21.8364 4.06785 23.257 2.61238 25.0782 1.56743C26.9358 0.522477 29.0484 0 31.416 0C33.4922 0 35.3316 0.466498 36.9343 1.39949C38.537 2.33249 39.7754 3.71332 40.6496 5.54199C41.5602 7.33333 42.0155 9.51654 42.0155 12.0916V28.1018C42.0155 28.9228 41.7605 29.6132 41.2506 30.173C40.7407 30.6955 40.0668 30.9567 39.229 30.9567ZM2.78646 30.9567C1.98513 30.9567 1.31128 30.6955 0.764912 30.173C0.254971 29.6132 0 28.9228 0 28.1018V3.19084C0 2.33249 0.254971 1.64207 0.764912 1.1196C1.31128 0.597118 1.98513 0.33588 2.78646 0.33588C3.62422 0.33588 4.29808 0.597118 4.80802 1.1196C5.31796 1.64207 5.57293 2.33249 5.57293 3.19084V28.1018C5.57293 28.9228 5.31796 29.6132 4.80802 30.173C4.29808 30.6955 3.62422 30.9567 2.78646 30.9567ZM21.0351 30.9567C20.2337 30.9567 19.5599 30.6955 19.0135 30.173C18.5036 29.6132 18.2486 28.9228 18.2486 28.1018V12.0916C18.2486 9.74046 17.684 8.00509 16.5549 6.8855C15.4257 5.72858 13.9505 5.15013 12.1293 5.15013C10.2352 5.15013 8.669 5.82188 7.43057 7.16539C6.19214 8.50891 5.57293 10.2256 5.57293 12.3155H2.13083C2.13083 9.88974 2.60434 7.76251 3.55138 5.93384C4.49841 4.06785 5.80969 2.61238 7.48521 1.56743C9.16073 0.522477 11.073 0 13.222 0C15.2982 0 17.1377 0.466498 18.7403 1.39949C20.343 2.33249 21.5814 3.71332 22.4556 5.54199C23.3662 7.33333 23.8215 9.51654 23.8215 12.0916V28.1018C23.8215 28.9228 23.5666 29.6132 23.0566 30.173C22.5467 30.6955 21.8728 30.9567 21.0351 30.9567Z" fill="#393E46"/>
<path d="M65.3167 31.1247C62.2935 31.1247 59.5981 30.4716 57.2305 29.1654C54.8994 27.8219 53.0599 25.9932 51.7122 23.6794C50.4009 21.3282 49.7453 18.6412 49.7453 15.6183C49.7453 12.5581 50.3645 9.87108 51.6029 7.55725C52.8778 5.20611 54.6262 3.37744 56.8481 2.07125C59.0699 0.727737 61.6196 0.0559823 64.4972 0.0559823C67.3383 0.0559823 69.7787 0.709077 71.8185 2.01527C73.8582 3.28414 75.4063 5.05683 76.4626 7.33333C77.5553 9.57252 78.1017 12.1662 78.1017 15.1145C78.1017 15.8236 77.8649 16.4207 77.3914 16.9059C76.9179 17.3537 76.3169 17.5776 75.5884 17.5776H53.5699V13.0992H75.4245L73.1844 14.6667C73.148 12.8007 72.7837 11.1399 72.0917 9.68448C71.3996 8.19169 70.4161 7.01612 69.1413 6.15776C67.8664 5.29941 66.3184 4.87023 64.4972 4.87023C62.421 4.87023 60.6362 5.33673 59.1428 6.26972C57.6858 7.20272 56.5749 8.49025 55.81 10.1323C55.0451 11.7371 54.6626 13.5657 54.6626 15.6183C54.6626 17.6709 55.1179 19.4996 56.0285 21.1043C56.9391 22.7091 58.1958 23.9779 59.7984 24.9109C61.4011 25.8439 63.2405 26.3104 65.3167 26.3104C66.4459 26.3104 67.5932 26.1052 68.7588 25.6947C69.9608 25.2468 70.9261 24.743 71.6546 24.1832C72.2009 23.7727 72.7837 23.5674 73.4029 23.5674C74.0586 23.5301 74.6231 23.7167 75.0967 24.1272C75.7159 24.687 76.0437 25.3028 76.0801 25.9746C76.1165 26.6463 75.8252 27.2248 75.2059 27.7099C73.9675 28.7176 72.4195 29.5386 70.5618 30.173C68.7406 30.8075 66.9922 31.1247 65.3167 31.1247Z" fill="#393E46"/>
<path d="M96.0822 31.1247C93.5325 31.1247 91.1649 30.7328 88.9795 29.9491C86.8304 29.1281 85.1549 28.1018 83.9529 26.8702C83.4065 26.2731 83.1698 25.6014 83.2426 24.855C83.3519 24.0712 83.7162 23.4368 84.3354 22.9517C85.0639 22.3545 85.7741 22.112 86.4662 22.2239C87.1947 22.2986 87.8139 22.6158 88.3238 23.1756C88.943 23.8846 89.9265 24.5564 91.2742 25.1908C92.6583 25.788 94.1882 26.0865 95.8637 26.0865C97.9763 26.0865 99.579 25.732 100.672 25.0229C101.801 24.3138 102.384 23.3995 102.42 22.2799C102.456 21.1603 101.928 20.19 100.836 19.369C99.7793 18.5479 97.8306 17.8762 94.9895 17.3537C91.3106 16.6073 88.6334 15.4877 86.9579 13.9949C85.3188 12.5021 84.4993 10.6735 84.4993 8.50891C84.4993 6.6056 85.0456 5.03817 86.1384 3.80662C87.2311 2.53774 88.6334 1.60475 90.3454 1.00763C92.0573 0.373199 93.8421 0.0559823 95.6998 0.0559823C98.1038 0.0559823 100.235 0.447839 102.092 1.23155C103.95 2.01527 105.425 3.09754 106.518 4.47837C107.028 5.07549 107.265 5.70992 107.228 6.38168C107.192 7.01611 106.882 7.55725 106.299 8.00509C105.716 8.41561 105.024 8.54622 104.223 8.39695C103.422 8.24767 102.748 7.91179 102.202 7.38932C101.291 6.49364 100.307 5.87786 99.2511 5.54199C98.1948 5.20611 96.9746 5.03817 95.5905 5.03817C93.9878 5.03817 92.6219 5.31807 91.4928 5.87786C90.4 6.43766 89.8537 7.25869 89.8537 8.34097C89.8537 9.01272 90.0176 9.6285 90.3454 10.1883C90.7096 10.7108 91.4017 11.1959 92.4216 11.6438C93.4415 12.0543 94.9349 12.4648 96.9018 12.8753C99.6336 13.4351 101.783 14.1442 103.349 15.0025C104.952 15.8609 106.099 16.8685 106.791 18.0254C107.483 19.145 107.829 20.4512 107.829 21.944C107.829 23.6607 107.374 25.2095 106.463 26.5903C105.589 27.9712 104.278 29.0721 102.529 29.8931C100.817 30.7142 98.6684 31.1247 96.0822 31.1247Z" fill="#393E46"/>
<path d="M117.662 44C116.861 44 116.187 43.7201 115.64 43.1603C115.13 42.6378 114.875 41.9661 114.875 41.145V15.6183C114.912 12.6701 115.586 10.0204 116.897 7.66921C118.208 5.31807 119.993 3.47074 122.251 2.12723C124.51 0.746398 127.059 0.0559823 129.901 0.0559823C132.778 0.0559823 135.346 0.746398 137.604 2.12723C139.863 3.47074 141.647 5.31807 142.959 7.66921C144.306 10.0204 144.98 12.6701 144.98 15.6183C144.98 18.5666 144.361 21.2163 143.123 23.5674C141.921 25.8813 140.263 27.7286 138.151 29.1094C136.038 30.4529 133.652 31.1247 130.993 31.1247C128.844 31.1247 126.859 30.6768 125.038 29.7812C123.253 28.8482 121.723 27.598 120.448 26.0305V41.145C120.448 41.9661 120.193 42.6378 119.684 43.1603C119.174 43.7201 118.5 44 117.662 44ZM129.901 26.0865C131.758 26.0865 133.415 25.6387 134.872 24.743C136.329 23.81 137.477 22.5598 138.315 20.9924C139.189 19.3876 139.626 17.5963 139.626 15.6183C139.626 13.6031 139.189 11.8117 138.315 10.2443C137.477 8.63952 136.329 7.38931 134.872 6.49364C133.415 5.56064 131.758 5.09415 129.901 5.09415C128.079 5.09415 126.422 5.56064 124.929 6.49364C123.472 7.38931 122.324 8.63952 121.487 10.2443C120.649 11.8117 120.23 13.6031 120.23 15.6183C120.23 17.5963 120.649 19.3876 121.487 20.9924C122.324 22.5598 123.472 23.81 124.929 24.743C126.422 25.6387 128.079 26.0865 129.901 26.0865Z" fill="#393E46"/>
<path d="M166.842 31.1247C163.891 31.1247 161.287 30.4716 159.029 29.1654C156.77 27.8219 154.986 25.9932 153.674 23.6794C152.399 21.3282 151.762 18.6412 151.762 15.6183C151.762 12.5581 152.399 9.87108 153.674 7.55725C154.986 5.20611 156.77 3.37744 159.029 2.07125C161.287 0.727737 163.891 0.0559823 166.842 0.0559823C169.756 0.0559823 172.342 0.727737 174.6 2.07125C176.858 3.37744 178.625 5.20611 179.9 7.55725C181.211 9.87108 181.867 12.5581 181.867 15.6183C181.867 18.6412 181.229 21.3282 179.954 23.6794C178.68 25.9932 176.913 27.8219 174.655 29.1654C172.396 30.4716 169.792 31.1247 166.842 31.1247ZM166.842 26.0865C168.736 26.0865 170.411 25.6387 171.868 24.743C173.325 23.8473 174.454 22.6158 175.256 21.0483C176.093 19.4809 176.512 17.6709 176.512 15.6183C176.512 13.5657 176.093 11.7557 175.256 10.1883C174.454 8.58355 173.325 7.33333 171.868 6.43766C170.411 5.54199 168.736 5.09415 166.842 5.09415C164.948 5.09415 163.272 5.54199 161.815 6.43766C160.358 7.33333 159.211 8.58355 158.373 10.1883C157.535 11.7557 157.116 13.5657 157.116 15.6183C157.116 17.6709 157.535 19.4809 158.373 21.0483C159.211 22.6158 160.358 23.8473 161.815 24.743C163.272 25.6387 164.948 26.0865 166.842 26.0865Z" fill="#393E46"/>
</svg>
