<svg width="120" height="74" viewBox="0 0 120 74" fill="none" xmlns="http://www.w3.org/2000/svg">
<g clip-path="url(#clip0)">
<path d="M59.3227 73.3718C58.9166 73.3718 58.5375 73.2635 58.1852 73.0739L54.5831 70.9344C54.0413 70.6363 54.3122 70.528 54.4749 70.4739C55.206 70.2302 55.3415 70.1758 56.0998 69.7427C56.1811 69.6884 56.2896 69.7155 56.3707 69.7697L59.1334 71.4218C59.2417 71.4759 59.3771 71.4759 59.4582 71.4218L70.265 65.1653C70.3732 65.1112 70.4276 65.0027 70.4276 64.8674V52.3816C70.4276 52.2459 70.3732 52.1379 70.265 52.0835L59.4582 45.8542C59.3499 45.7998 59.2145 45.7998 59.1334 45.8542L48.3266 52.0835C48.2184 52.1377 48.164 52.2731 48.164 52.3814V64.8672C48.164 64.9757 48.2184 65.1109 48.3266 65.1653L51.2789 66.8716C52.8769 67.684 53.8789 66.7361 53.8789 65.7882V53.4647C53.8789 53.3023 54.0144 53.1397 54.204 53.1397H55.5852C55.7478 53.1397 55.9102 53.2752 55.9102 53.4647V65.7882C55.9102 67.9277 54.7455 69.1737 52.7142 69.1737C52.0914 69.1737 51.6039 69.1737 50.2225 68.4965L47.3787 66.8716C46.6745 66.4654 46.2412 65.7069 46.2412 64.8944V52.4086C46.2412 51.5961 46.6745 50.8375 47.3787 50.4314L58.1852 44.1749C58.8625 43.7957 59.7835 43.7957 60.4605 44.1749L71.267 50.4314C71.9712 50.8375 72.4048 51.5961 72.4048 52.4086V64.8944C72.4048 65.7069 71.9712 66.4654 71.267 66.8716L60.4605 73.1281C60.1083 73.2907 59.7021 73.3718 59.323 73.3718H59.3227ZM62.6542 64.7861C57.9146 64.7861 56.9395 62.6194 56.9395 60.7777C56.9395 60.615 57.0749 60.4526 57.2645 60.4526H58.6729C58.8353 60.4526 58.9708 60.5609 58.9708 60.7235C59.1875 62.1589 59.8104 62.8631 62.6814 62.8631C64.9564 62.8631 65.9317 62.3485 65.9317 61.1297C65.9317 60.4255 65.6606 59.9111 62.1126 59.5589C59.1604 59.2608 57.3186 58.6109 57.3186 56.2546C57.3186 54.0607 59.1606 52.7605 62.2481 52.7605C65.7147 52.7605 67.4212 53.9524 67.638 56.5522C67.638 56.6338 67.6108 56.7149 67.5567 56.7962C67.5023 56.8503 67.4212 56.9044 67.3399 56.9044H65.9315C65.796 56.9044 65.6606 56.7962 65.6336 56.6607C65.3086 55.1712 64.4689 54.6836 62.2481 54.6836C59.7563 54.6836 59.4582 55.5504 59.4582 56.2002C59.4582 56.9858 59.8104 57.2295 63.1688 57.6628C66.5002 58.0963 68.0713 58.7192 68.0713 61.0483C68.0441 63.4319 66.0941 64.7861 62.6542 64.7861Z" fill="white"/>
<path d="M25.7716 24.5387C25.7716 24.0513 25.5007 23.5905 25.0674 23.3468L13.5836 16.7383C13.3938 16.6298 13.1773 16.5757 12.9607 16.5485H12.8522C12.6357 16.5485 12.4189 16.6298 12.2294 16.7383L0.745577 23.3468C0.312041 23.5905 0.0413742 24.051 0.0413742 24.5387L0.0685581 42.306C0.0685581 42.5497 0.204009 42.7934 0.420542 42.9019C0.63731 43.0373 0.907977 43.0373 1.0978 42.9019L7.92306 39.0017C8.35636 38.758 8.62726 38.2975 8.62726 37.8101V29.4951C8.62726 29.0076 8.89793 28.5471 9.33146 28.3034L12.2294 26.6241C12.4461 26.4887 12.6898 26.4343 12.9336 26.4343C13.1773 26.4343 13.421 26.4887 13.6108 26.6241L16.5087 28.3034C16.9422 28.5471 17.2129 29.0074 17.2129 29.4951V37.8101C17.2129 38.2975 17.4838 38.758 17.9171 39.0017L24.7424 42.9019C24.9591 43.0373 25.2298 43.0373 25.4466 42.9019C25.6633 42.7934 25.7988 42.5497 25.7988 42.306L25.7716 24.5387ZM80.9697 0.081376C80.7531 -0.0271253 80.4822 -0.0271253 80.2924 0.081376C80.0759 0.216827 79.9404 0.433361 79.9404 0.677078V18.2822C79.9404 18.4446 79.8593 18.607 79.6967 18.7155C79.5343 18.7966 79.3717 18.7966 79.2093 18.7155L76.3383 17.0634C76.1278 16.9435 75.8898 16.8805 75.6476 16.8805C75.4054 16.8805 75.1673 16.9435 74.9569 17.0634L63.4731 23.699C63.0398 23.9428 62.7689 24.4032 62.7689 24.8907V38.1349C62.7689 38.6223 63.0398 39.083 63.4731 39.3267L74.9569 45.9624C75.1673 46.0823 75.4054 46.1453 75.6476 46.1453C75.8898 46.1453 76.1278 46.0823 76.3383 45.9624L87.8221 39.3267C88.2554 39.083 88.5263 38.6225 88.5263 38.1349V5.11907C88.5263 4.60445 88.2554 4.1442 87.8221 3.90025L80.9699 0.081376H80.9697ZM79.9135 33.7744C79.9135 33.9099 79.8593 34.0181 79.7508 34.0723L75.8237 36.3473C75.7688 36.374 75.7086 36.3879 75.6476 36.3879C75.5866 36.3879 75.5263 36.374 75.4715 36.3473L71.5443 34.0723C71.4358 34.0181 71.3817 33.8827 71.3817 33.7744V29.2242C71.3817 29.0887 71.4358 28.9804 71.5443 28.9263L75.4715 26.6511C75.5263 26.6243 75.5866 26.6104 75.6476 26.6104C75.7086 26.6104 75.7688 26.6243 75.8237 26.6511L79.7508 28.9263C79.8593 28.9802 79.9135 29.1159 79.9135 29.2242V33.7744ZM119.186 29.1159C119.619 28.8722 119.863 28.4117 119.863 27.924V24.7011C119.863 24.2137 119.592 23.7532 119.186 23.5095L107.783 16.9009C107.573 16.7812 107.335 16.7182 107.093 16.7182C106.85 16.7182 106.612 16.7812 106.402 16.9009L94.9183 23.5364C94.4847 23.7801 94.2141 24.2406 94.2141 24.7283V37.9725C94.2141 38.4599 94.4847 38.9204 94.9183 39.1641L106.321 45.6643C106.754 45.9081 107.269 45.9081 107.675 45.6643L114.581 41.8187C114.798 41.7102 114.934 41.4665 114.934 41.2228C114.934 40.9791 114.798 40.7354 114.581 40.6269L103.043 33.9912C102.827 33.856 102.691 33.6392 102.691 33.3955V29.2516C102.691 29.0079 102.827 28.7641 103.043 28.6556L106.646 26.5972C106.751 26.5308 106.873 26.4956 106.998 26.4956C107.122 26.4956 107.245 26.5308 107.35 26.5972L110.952 28.6556C111.169 28.7911 111.304 29.0076 111.304 29.2516V32.5017C111.304 32.7454 111.44 32.9891 111.656 33.0974C111.873 33.2328 112.144 33.2328 112.36 33.0974L119.186 29.1159Z" fill="white"/>
<path d="M106.937 28.493C106.978 28.4665 107.025 28.4524 107.073 28.4524C107.121 28.4524 107.168 28.4665 107.208 28.493L109.402 29.7659C109.483 29.8198 109.537 29.9011 109.537 30.0096V32.5555C109.537 32.6638 109.483 32.7451 109.402 32.7992L107.208 34.0722C107.168 34.0987 107.121 34.1128 107.073 34.1128C107.025 34.1128 106.978 34.0987 106.937 34.0722L104.744 32.7992C104.662 32.7451 104.608 32.6638 104.608 32.5555V30.0096C104.608 29.9011 104.662 29.8198 104.744 29.7659L106.937 28.493Z" fill="white"/>
<mask id="mask0" mask-type="alpha" maskUnits="userSpaceOnUse" x="31" y="16" width="27" height="30">
<path d="M44.9952 16.9551C44.7847 16.8353 44.5467 16.7723 44.3046 16.7723C44.0624 16.7723 43.8244 16.8353 43.614 16.9551L32.2115 23.5362C31.778 23.7799 31.5342 24.2404 31.5342 24.7278V37.9181C31.5342 38.4055 31.8051 38.866 32.2115 39.1097L43.614 45.6913C43.8244 45.8111 44.0624 45.8741 44.3046 45.8741C44.5467 45.8741 44.7847 45.8111 44.9952 45.6913L56.3979 39.1097C56.8312 38.866 57.0751 38.4055 57.0751 37.9181V24.728C57.0751 24.2406 56.804 23.7801 56.3979 23.5364L44.9952 16.9551Z" fill="white"/>
</mask>
<g mask="url(#mask0)">
<path d="M44.9952 16.9551C44.7847 16.8353 44.5467 16.7723 44.3046 16.7723C44.0624 16.7723 43.8244 16.8353 43.614 16.9551L32.2115 23.5362C31.778 23.7799 31.5342 24.2404 31.5342 24.7278V37.9181C31.5342 38.4055 31.8051 38.866 32.2115 39.1097L43.614 45.6913C43.8244 45.8111 44.0624 45.8741 44.3046 45.8741C44.5467 45.8741 44.7847 45.8111 44.9952 45.6913L56.3979 39.1097C56.8312 38.866 57.0751 38.4055 57.0751 37.9181V24.728C57.0751 24.2406 56.804 23.7801 56.3979 23.5364L44.9952 16.9551Z" fill="url(#paint0_linear)"/>
<path d="M56.4248 23.5364L44.9682 16.9551C44.8557 16.8982 44.7377 16.8529 44.616 16.8196L31.778 38.8123C31.8843 38.9422 32.0127 39.0522 32.1574 39.1374L43.6139 45.7189C43.939 45.9085 44.3182 45.9626 44.6701 45.8541L56.7229 23.8075C56.6416 23.6993 56.5331 23.6177 56.4248 23.5366V23.5364Z" fill="url(#paint1_linear)"/>
<path fill-rule="evenodd" clip-rule="evenodd" d="M56.452 39.11C56.7771 38.9204 57.0208 38.5954 57.1293 38.2434L44.5616 16.7925C44.2366 16.7383 43.8844 16.7653 43.5868 16.9549L32.2112 23.5095L44.4803 45.8811C44.6588 45.8519 44.8321 45.7972 44.9949 45.7187L56.4518 39.1102L56.452 39.11Z" fill="url(#paint2_linear)"/>
<path fill-rule="evenodd" clip-rule="evenodd" d="M56.452 39.11L45.0224 45.6915C44.861 45.7738 44.6871 45.8287 44.5078 45.8539L44.7245 46.2603L57.3999 38.9206V38.758L57.0749 38.2162C57.0207 38.5954 56.777 38.9204 56.452 39.11Z" fill="url(#paint3_linear)"/>
<path fill-rule="evenodd" clip-rule="evenodd" d="M56.452 39.11L45.0224 45.6915C44.861 45.7738 44.6871 45.8287 44.5078 45.8539L44.7245 46.2603L57.3999 38.9206V38.758L57.0749 38.2162C57.0207 38.5954 56.777 38.9204 56.452 39.11Z" fill="url(#paint4_linear)"/>
</g>
</g>
<defs>
<linearGradient id="paint0_linear" x1="48.9501" y1="21.8613" x2="36.4519" y2="41.4997" gradientUnits="userSpaceOnUse">
<stop stop-color="white"/>
<stop offset="0.3288" stop-color="#F1F1F1"/>
<stop offset="0.6352" stop-color="white"/>
<stop offset="0.9319" stop-color="#D1D1D1"/>
<stop offset="1" stop-color="white"/>
</linearGradient>
<linearGradient id="paint1_linear" x1="42.5734" y1="32.8682" x2="73.8745" y2="15.8622" gradientUnits="userSpaceOnUse">
<stop offset="0.1376" stop-color="white"/>
<stop offset="0.4032" stop-color="#CFCFCF"/>
<stop offset="0.7136" stop-color="#EBEBEB"/>
<stop offset="0.9081" stop-color="white"/>
</linearGradient>
<linearGradient id="paint2_linear" x1="31.1176" y1="31.3236" x2="57.5028" y2="31.3236" gradientUnits="userSpaceOnUse">
<stop offset="0.09192" stop-color="white"/>
<stop offset="0.2864" stop-color="#D6D6D6"/>
<stop offset="0.5968" stop-color="#F7F7F7"/>
<stop offset="0.8624" stop-color="white"/>
</linearGradient>
<linearGradient id="paint3_linear" x1="31.1178" y1="42.2603" x2="57.5026" y2="42.2603" gradientUnits="userSpaceOnUse">
<stop offset="0.09192" stop-color="white"/>
<stop offset="0.2864" stop-color="#C9C9C9"/>
<stop offset="0.5968" stop-color="white"/>
<stop offset="0.8624" stop-color="#A7A7A7"/>
</linearGradient>
<linearGradient id="paint4_linear" x1="61.3466" y1="21.2376" x2="54.6622" y2="56.2632" gradientUnits="userSpaceOnUse">
<stop stop-color="white"/>
<stop offset="0.3288" stop-color="white"/>
<stop offset="0.6352" stop-color="#DCDCDC"/>
<stop offset="0.9319" stop-color="#EBEBEB"/>
<stop offset="1" stop-color="white"/>
</linearGradient>
<clipPath id="clip0">
<rect width="120" height="73.584" fill="white"/>
</clipPath>
</defs>
</svg>
