<svg width="120" height="108" viewBox="0 0 120 108" fill="none" xmlns="http://www.w3.org/2000/svg">
<path d="M94.2265 37.3559C93.0992 36.9691 91.9624 36.6108 90.817 36.2813C91.0069 35.5093 91.1826 34.7338 91.3438 33.9553C93.9247 21.4236 92.2373 11.3281 86.4747 8.00483C80.9498 4.81752 71.9136 8.1408 62.7874 16.0847C61.8881 16.8693 61.0088 17.6764 60.1503 18.5054C59.5754 17.9542 58.9903 17.4137 58.3954 16.8841C48.8309 8.38929 39.244 4.81001 33.4875 8.14314C27.9677 11.3394 26.3328 20.8305 28.6563 32.7067C28.8875 33.8828 29.1485 35.0528 29.4391 36.2157C28.0826 36.6011 26.7725 37.0118 25.5191 37.4488C14.3061 41.3591 7.14486 47.488 7.14486 53.8448C7.14486 60.4107 14.832 66.9963 26.5119 70.9892C27.4589 71.3114 28.4139 71.61 29.3758 71.8847C29.0633 73.1374 28.7859 74.3987 28.5438 75.667C26.3286 87.3369 28.0587 96.603 33.5639 99.7795C39.2501 103.059 48.7934 99.6881 58.0865 91.5627C58.821 90.9204 59.5583 90.2391 60.2966 89.5251C61.2264 90.4225 62.1811 91.2938 63.1596 92.138C72.1611 99.8859 81.051 103.015 86.5516 99.8297C92.2326 96.5401 94.0784 86.5858 91.6813 74.4747C91.4985 73.5496 91.2853 72.6048 91.0462 71.6427C91.7165 71.4449 92.3741 71.2405 93.0158 71.0276C105.158 67.0038 113.057 60.4984 113.057 53.8448C113.057 47.465 105.665 41.2948 94.2265 37.3559Z" fill="white"/>
<path d="M91.5927 66.7319C91.0138 66.9237 90.4195 67.1089 89.8139 67.2885C88.4733 63.0439 86.664 58.5302 84.4507 53.8673C86.5632 49.3147 88.3022 44.8591 89.6053 40.6417C90.6885 40.9559 91.7404 41.2864 92.7538 41.6357C102.555 45.0101 108.533 50.0002 108.533 53.8448C108.533 57.9403 102.076 63.2572 91.5932 66.7319H91.5927ZM87.2429 75.3538C88.3027 80.7091 88.4541 85.551 87.7519 89.3361C87.121 92.7373 85.8526 95.0047 84.2843 95.9128C80.9464 97.8455 73.8082 95.3333 66.1107 88.7074C65.2281 87.9479 64.3389 87.1367 63.4473 86.2787C66.4317 83.0136 69.4143 79.2177 72.3251 75.0026C77.4455 74.5483 82.2828 73.8052 86.6696 72.791C86.8853 73.6631 87.0774 74.5178 87.2429 75.3538ZM43.2526 95.579C39.9916 96.731 37.3944 96.7638 35.8246 95.8585C32.4835 93.9314 31.0951 86.4906 32.9892 76.5109C33.2145 75.3316 33.4724 74.1586 33.7626 72.9936C38.1007 73.9533 42.9029 74.6439 48.0355 75.0603C50.9655 79.1849 54.0343 82.9761 57.127 86.2961C56.4697 86.932 55.7969 87.5518 55.1091 88.1546C50.9997 91.748 46.8819 94.2967 43.253 95.579H43.2526ZM27.9752 66.7066C22.8108 64.9409 18.5458 62.6463 15.6223 60.1426C12.9956 57.892 11.669 55.6579 11.669 53.8448C11.669 49.9875 17.419 45.0668 27.0087 41.7225C28.2124 41.3045 29.428 40.9219 30.654 40.5752C31.9796 44.8873 33.7181 49.3958 35.8162 53.955C33.6909 58.5822 31.9276 63.1625 30.5898 67.5252C29.7117 67.2738 28.8399 67.0009 27.9752 66.7066ZM33.0966 31.8375C31.1059 21.6618 32.4277 13.9861 35.7543 12.06C39.2979 10.0083 47.1327 12.934 55.3908 20.2684C55.9186 20.7372 56.4487 21.2281 56.9798 21.7359C53.903 25.0409 50.8624 28.8035 47.9577 32.9041C42.9765 33.366 38.2081 34.1077 33.8245 35.1012C33.5545 34.0194 33.3118 32.931 33.0966 31.837V31.8375ZM78.7823 43.1215C77.7469 41.3326 76.6731 39.5661 75.5617 37.8234C78.9412 38.2501 82.1787 38.8174 85.2189 39.5118C84.3063 42.4379 83.1687 45.4977 81.8291 48.6344C80.8503 46.7767 79.8345 44.9387 78.7823 43.1215ZM60.1517 24.9701C62.2385 27.2314 64.3286 29.7567 66.3844 32.4962C62.2141 32.2991 58.0369 32.2982 53.8665 32.4934C55.9242 29.7792 58.0321 27.2577 60.1517 24.9701ZM41.4015 43.1525C40.3626 44.9552 39.3658 46.7819 38.412 48.6311C37.0944 45.5052 35.9671 42.4318 35.0465 39.464C38.0684 38.7874 41.2909 38.2346 44.6484 37.815C43.5245 39.5685 42.4419 41.3481 41.4015 43.1525ZM44.745 70.1977C41.2764 69.8105 38.0051 69.2858 34.9842 68.628C35.9193 65.6076 37.0714 62.4681 38.4171 59.2752C39.3749 61.1258 40.3761 62.9536 41.4198 64.7571C42.4848 66.5968 43.5935 68.4109 44.745 70.1977ZM60.2768 83.0394C58.1324 80.7246 55.9936 78.1646 53.9045 75.411C55.9322 75.4907 57.9998 75.531 60.1011 75.531C62.26 75.531 64.3942 75.4827 66.4946 75.389C64.4321 78.1927 62.3496 80.7565 60.2768 83.0394ZM81.8722 59.1125C83.2878 62.3401 84.4811 65.4627 85.4289 68.432C82.3578 69.133 79.0425 69.6975 75.549 70.1166C76.6685 68.3414 77.7526 66.544 78.8006 64.7257C79.866 62.8776 80.8901 61.0061 81.8722 59.1125ZM74.8811 62.4648C73.2767 65.2527 71.5821 67.9876 69.8 70.6652C66.6577 70.8898 63.4103 71.0056 60.1011 71.0056C56.8054 71.0056 53.5993 70.9029 50.5118 70.7027C48.6835 68.0313 46.9568 65.2917 45.3356 62.4897C43.7219 59.7026 42.2147 56.8552 40.817 53.9536C42.2111 51.0512 43.7138 48.2023 45.322 45.4129V45.4138C46.9297 42.6238 48.6427 39.8959 50.4574 37.2359C53.6073 36.9978 56.8368 36.873 60.1015 36.873C63.3808 36.873 66.6146 36.9987 69.7635 37.2388C71.5598 39.8946 73.2619 42.613 74.8665 45.3889C76.4803 48.1721 78.003 51.0071 79.4324 53.8894C78.0177 56.801 76.4998 59.6613 74.8815 62.4648H74.8811ZM84.2149 11.9255C87.7613 13.9716 89.1408 22.2221 86.9125 33.042C86.7664 33.7468 86.6076 34.449 86.4362 35.1481C82.0423 34.134 77.2707 33.3791 72.2749 32.9102C69.3646 28.765 66.3493 24.9959 63.3222 21.7335C64.1154 20.9686 64.9275 20.2235 65.7577 19.499C73.5771 12.692 80.885 10.0045 84.2149 11.9255Z" fill="#393E46"/>
<path d="M60.1011 44.3846C65.3246 44.3846 69.5587 48.6203 69.5587 53.8448C69.5587 59.0698 65.3246 63.3055 60.1011 63.3055C54.878 63.3055 50.6435 59.0698 50.6435 53.8448C50.6435 48.6203 54.878 44.3846 60.1011 44.3846Z" fill="white"/>
</svg>
