<svg width="120" height="120" viewBox="0 0 120 120" fill="none" xmlns="http://www.w3.org/2000/svg">
<g clip-path="url(#clip0)">
<path d="M96.4287 103.714C96.4287 105.016 97.4841 106.071 98.7858 106.071H117.643C118.268 106.071 118.867 105.823 119.31 105.381C119.752 104.939 120 104.339 120 103.714V101.785H96.4287V103.714Z" fill="white"/>
<path d="M117.643 63.2142H98.7858C97.4841 63.2142 96.4287 64.2696 96.4287 65.5713V67.5H120V65.5713C120 64.2696 118.945 63.2142 117.643 63.2142Z" fill="white"/>
<path d="M49.2858 78.2142H72.8571H92.1429V71.7858H49.2858V78.2142Z" fill="white"/>
<path d="M98.5713 20.3571C98.5713 16.8068 95.6932 13.9285 92.1427 13.9285H27.8571C24.3068 13.9285 21.4284 16.8066 21.4284 20.3571V33.2142H39.6127C44.9524 33.2201 49.2797 37.5474 49.2855 42.8871V67.5H92.1427V65.5714C92.1546 61.9946 94.9964 59.0696 98.5713 58.9542V20.3571Z" fill="white"/>
<path d="M70.7145 82.5H49.2858V91.0713H70.7145V82.5Z" fill="white"/>
<path d="M120 71.7858H96.4287V97.5H120V71.7858Z" fill="white"/>
<path d="M0 100.684C0.00234375 103.658 2.41289 106.069 5.38711 106.071H39.6129C42.5871 106.069 44.9977 103.658 45 100.684V99.6429H0V100.684Z" fill="white"/>
<path d="M0 95.3571H45V93.2142V80.3571V48.2142H0V95.3571Z" fill="white"/>
<path d="M39.6129 37.5H5.38711C2.41289 37.5023 0.00234375 39.9129 0 42.8871V43.9284H45V42.8871C44.9977 39.9129 42.5871 37.5023 39.6129 37.5Z" fill="white"/>
<path d="M81.4287 95.3572H49.2858V99.643H83.5716V97.5001C83.5713 96.3167 82.612 95.3572 81.4287 95.3572Z" fill="white"/>
</g>
<defs>
<clipPath id="clip0">
<rect width="120" height="120" fill="white"/>
</clipPath>
</defs>
</svg>
