<svg width="120" height="90" viewBox="0 0 120 90" fill="none" xmlns="http://www.w3.org/2000/svg">
<g clip-path="url(#clip0)">
<path d="M103.266 51.6866C99.0704 51.7103 95.4376 52.7175 92.3907 54.2173C91.2657 51.9914 90.1407 50.0465 89.9535 48.5941C89.7425 46.9071 89.4847 45.876 89.7425 43.8612C90.0001 41.846 91.172 38.9875 91.172 38.7532C91.1483 38.5424 90.9139 37.5114 88.5001 37.488C86.0863 37.4646 84.0001 37.9566 83.7657 38.5892C83.5313 39.2218 83.0626 40.6745 82.7579 42.174C82.336 44.3764 77.9298 52.1787 75.422 56.2789C74.6016 54.6857 73.8985 53.2799 73.7577 52.155C73.547 50.4683 73.2889 49.4371 73.547 47.4224C73.8048 45.4071 74.9766 42.5489 74.9766 42.3146C74.9532 42.1037 74.7188 41.0728 72.305 41.0494C69.8907 41.026 67.805 41.518 67.5706 42.1506C67.3362 42.7832 67.0784 44.2827 66.5628 45.7354C66.0704 47.1881 60.211 60.2152 58.6876 63.6125C57.9141 65.3463 57.2347 66.7287 56.7423 67.6659C56.2501 68.6031 56.7188 67.7362 56.6719 67.8299C56.2501 68.6265 56.0157 69.0717 56.0157 69.0717V69.0954C55.6876 69.6811 55.336 70.2432 55.1717 70.2432C55.0545 70.2432 54.8201 68.6734 55.2186 66.5181C56.0858 61.9958 58.1951 54.9436 58.1719 54.6859C58.1719 54.5688 58.5701 53.3267 56.8123 52.6943C55.1014 52.0617 54.4922 53.1161 54.3514 53.1161C54.2108 53.1161 54.0936 53.491 54.0936 53.491C54.0936 53.491 55.992 45.5484 50.4608 45.5484C46.992 45.5484 42.2108 49.3207 39.8436 52.7649C38.3436 53.5849 35.1561 55.3185 31.7811 57.1697C30.492 57.8726 29.1561 58.6224 27.8904 59.3019L27.6328 59.0202C20.9297 51.8741 8.53127 46.8132 9.04689 37.2069C9.23439 33.7158 10.4531 24.5078 32.8596 13.3551C51.2112 4.21737 65.9066 6.72438 68.461 12.3007C72.0938 20.2669 60.6094 35.0747 41.5315 37.2069C34.2659 38.0269 30.4454 35.2153 29.4846 34.161C28.4768 33.0597 28.3362 33.0129 27.9612 33.2238C27.3518 33.5518 27.7268 34.5358 27.9612 35.1216C28.5237 36.5977 30.8675 39.2218 34.8518 40.5339C38.3438 41.682 46.8753 42.3146 57.1878 38.3315C68.7425 33.8564 77.7659 21.4384 75.1175 11.0589C72.4222 0.491992 54.8909 -2.97565 38.3206 2.90529C28.4532 6.41979 17.7657 11.9024 10.0781 19.0954C0.93751 27.624 -0.515616 35.0747 0.0937594 38.1675C2.22681 49.203 17.4375 56.3961 23.5313 61.7147C23.2266 61.8785 22.9453 62.0425 22.6875 62.1833C19.6407 63.6826 8.03908 69.7512 5.13283 76.1708C1.85157 83.4341 5.64845 88.6592 8.17971 89.3621C16.0078 91.5411 24.0235 87.6283 28.3594 81.185C32.6717 74.7418 32.1563 66.3773 30.1641 62.5582L30.0936 62.4176L32.4842 61.0118C34.0313 60.098 35.5547 59.2545 36.8904 58.528C36.1407 60.5664 35.6014 62.9797 35.3204 66.4942C34.9922 70.6181 36.6797 75.9599 38.9063 78.0686C39.8907 78.9822 41.0625 79.0058 41.7891 79.0058C44.3672 79.0058 45.5391 76.8735 46.8282 74.3198C48.4219 71.2036 49.8282 67.5954 49.8282 67.5954C49.8282 67.5954 48.0704 77.3657 52.8751 77.3657C54.6329 77.3657 56.3907 75.093 57.1876 73.9215V73.9449C57.1876 73.9449 57.2344 73.8746 57.3282 73.7106C57.4265 73.5653 57.5203 73.4169 57.6094 73.2657V73.2188C58.3126 72.0005 59.8829 69.2123 62.2266 64.5966C65.2498 58.6453 68.1563 51.1946 68.1563 51.1946C68.1563 51.1946 68.4376 53.0221 69.3048 56.0212C69.8202 57.8021 70.9452 59.7466 71.8123 61.6444C71.1092 62.6285 70.6873 63.191 70.6873 63.191L70.7108 63.2144C70.1485 63.9642 69.5155 64.7611 68.8594 65.5574C66.4688 68.4159 63.6094 71.6729 63.2344 72.6101C62.7891 73.7111 62.8829 74.5312 63.7501 75.1874C64.3829 75.656 65.5079 75.7495 66.7032 75.656C68.8595 75.5152 70.3595 74.9766 71.1095 74.6483C72.2813 74.2266 73.6173 73.5939 74.9063 72.6567C77.2501 70.9232 78.6798 68.463 78.5391 65.1828C78.4688 63.3787 77.8829 61.598 77.1563 59.911C77.3673 59.6064 77.5784 59.3016 77.7891 58.9738C81.4923 53.5613 84.3516 47.6103 84.3516 47.6103C84.3516 47.6103 84.6329 49.4378 85.5001 52.4369C85.9452 53.9598 86.836 55.6236 87.6329 57.2637C84.1641 60.0987 81.9845 63.3789 81.2345 65.5345C79.8516 69.5176 80.9298 71.3217 82.9688 71.7434C83.8827 71.9309 85.1954 71.5091 86.1795 71.0874C87.3983 70.6891 88.8749 70.0094 90.2345 69.0021C92.5782 67.2683 94.8282 64.855 94.711 61.5982C94.6407 60.0987 94.2423 58.6226 93.7032 57.2168C96.6563 55.9985 100.476 55.2956 105.328 55.8813C115.758 57.0997 117.82 63.6132 117.422 66.3311C117.024 69.0492 114.844 70.5485 114.117 71.0171C113.391 71.4623 113.156 71.6265 113.227 71.9543C113.32 72.4466 113.649 72.4229 114.281 72.3294C115.149 72.1886 119.766 70.1036 119.953 65.0898C120.234 58.6456 114.117 51.6166 103.266 51.6866ZM22.8282 78.7952C19.3828 82.5674 14.5313 83.9966 12.4688 82.7783C10.2422 81.4896 11.1092 75.9367 15.3516 71.9302C17.9297 69.4935 21.2813 67.2442 23.4844 65.8618C23.9766 65.5572 24.7266 65.1123 25.6172 64.5732C25.7578 64.4797 25.8516 64.4326 25.8516 64.4326C26.0157 64.3388 26.2032 64.2217 26.3907 64.1045C27.961 69.8215 26.461 74.8355 22.8282 78.7952ZM48.0235 61.6678C46.8282 64.5966 44.2969 72.1176 42.7735 71.6959C41.4608 71.3444 40.6641 65.6509 42.5154 60.0277C43.4529 57.1924 45.4451 53.8188 46.617 52.5064C48.5157 50.3977 50.5779 49.6948 51.0938 50.5617C51.7032 51.6866 48.7735 59.8403 48.0235 61.6678ZM68.8126 71.6022C68.297 71.8601 67.8282 72.0473 67.6173 71.907C67.4532 71.8133 67.828 71.4618 67.828 71.4618C67.828 71.4618 70.4295 68.6736 71.4608 67.385C72.0467 66.6355 72.7498 65.7685 73.4998 64.7843V65.0654C73.5001 68.4391 70.2657 70.6884 68.8126 71.6022ZM84.8436 67.9471C84.4686 67.6659 84.5157 66.799 85.7811 64.0811C86.2735 63.0033 87.3983 61.1992 89.3436 59.4888C89.578 60.1917 89.7188 60.871 89.6952 61.5038C89.672 65.7212 86.672 67.291 84.8436 67.9471Z" fill="white"/>
</g>
<defs>
<clipPath id="clip0">
<rect width="120" height="89.9713" fill="white"/>
</clipPath>
</defs>
</svg>
