<svg width="32" height="32" viewBox="0 0 32 32" fill="none" xmlns="http://www.w3.org/2000/svg">
<g clip-path="url(#clip0)">
<path d="M30.2943 12.9626L4.84426 0.647342C3.16785 -0.165167 1.15025 0.535147 0.337677 2.21155C-0.0766482 3.06636 -0.111302 4.05622 0.242215 4.93797L4.218 14.874H32C31.7075 14.0358 31.0939 13.3482 30.2943 12.9626Z" fill="white"/>
<path d="M4.21842 17.1228L0.242643 27.0611C-0.447261 28.7962 0.400033 30.7621 2.13514 31.452C2.52799 31.6082 2.94673 31.6894 3.36948 31.6912C3.88032 31.6912 4.38458 31.576 4.84462 31.3539L30.2947 19.0342C31.0943 18.6485 31.7079 17.9609 32.0003 17.1228H4.21842Z" fill="white"/>
</g>
<defs>
<clipPath id="clip0">
<rect width="32" height="32" fill="white"/>
</clipPath>
</defs>
</svg>
