<svg width="120" height="133" viewBox="0 0 120 133" fill="none" xmlns="http://www.w3.org/2000/svg">
<path d="M73.7283 3.57202C65.4978 -1.17627 55.3298 -1.19148 47.0788 3.53148L28.2304 14.3355C26.4974 15.3287 25.2807 17.0568 25.0813 19.0281C24.8002 21.8305 26.5331 25.104 36.3331 24.876C42.6107 24.876 47.6973 27.7544 47.6973 31.3017C47.6973 34.849 42.6107 37.7273 36.3331 37.7273C30.0554 37.7273 24.9689 34.849 24.9689 31.3017C24.9689 31.2763 24.9739 31.246 24.9739 31.2206C24.9739 31.2155 24.9689 31.2105 24.9689 31.2003C24.9689 25.3979 15.4143 24.9825 10.3788 25.4588C9.14169 25.5753 7.94553 25.9604 6.86679 26.5787L0.430626 30.2679L60.0994 64.3319L119.461 29.9536L73.7283 3.57202Z" fill="url(#paint0_linear)"/>
<path d="M82.6182 23.1986C88.8959 23.1986 93.9825 26.077 93.9825 29.6243C93.9825 29.6496 93.9774 29.68 93.9774 29.7053C93.9774 29.7104 93.9825 29.7155 93.9825 29.7256C93.9825 36.8405 108.338 35.8523 111.129 35.0618C102.556 39.805 92.3875 45.734 92.3875 45.734C92.3875 45.734 99.565 35.6546 82.6182 36.0499C76.3406 36.0499 71.254 33.1716 71.254 29.6243C71.254 26.0719 76.3406 23.1986 82.6182 23.1986Z" fill="url(#paint1_linear)"/>
<path d="M0.538162 29.9536L0.00139218 82.4028C-0.0752029 89.8319 3.01252 96.8453 8.33927 101.822C10.0366 103.408 12.5926 103.828 14.5914 102.638C16.8613 101.279 18.2109 98.0362 13.5639 90.3589C10.4609 84.9518 10.471 79.1444 13.5793 77.391C16.6925 75.6377 21.7279 78.6021 24.831 84.0092C27.9341 89.4163 27.9238 95.2238 24.8157 96.9771C24.7901 96.9924 24.7646 97.0025 24.7442 97.0125C24.739 97.0176 24.7339 97.0227 24.7288 97.0227C20.8026 99.2373 22.4999 104.766 24.8157 109.058C26.3953 111.987 28.7827 114.404 31.6812 116.077L60.0024 132.41L60.0228 64.1141L0.538162 29.9536Z" fill="url(#paint2_linear)"/>
<path d="M37.3863 79.2357C34.2832 73.8286 34.2935 68.0212 37.4016 66.2679C37.4273 66.2527 37.4528 66.2425 37.4732 66.2324C37.4784 66.2273 37.4834 66.2222 37.4885 66.2222C43.7304 62.7054 35.7657 50.8219 33.6954 48.8051C42.0946 53.8473 52.3189 59.6851 52.3189 59.6851C52.3189 59.6851 39.9322 58.479 48.6534 72.8911C51.7565 78.2982 51.7463 84.1056 48.6381 85.859C45.5248 87.6073 40.4894 84.6428 37.3863 79.2357Z" fill="url(#paint3_linear)"/>
<path d="M106.677 70.5296C103.573 75.9367 98.5377 78.9013 95.4245 77.1479C92.3112 75.3945 92.3061 69.5872 95.4092 64.1801C98.5122 58.773 103.548 55.8085 106.661 57.5619C106.686 57.5771 106.707 57.5922 106.732 57.6074C106.737 57.6074 106.743 57.6125 106.748 57.6125C111.706 60.4047 116.656 52.8642 118.823 48.2426C119.36 47.0973 119.62 45.8457 119.61 44.5787L119.462 29.9589L59.9821 64.1243L59.9975 132.42L106.865 105.394C115.085 100.621 120.095 91.854 119.999 82.4131L119.845 67.6412C119.834 66.8709 119.584 66.1209 119.124 65.4977C117.314 63.0399 112.791 59.2645 106.677 70.5296Z" fill="url(#paint4_linear)"/>
<path d="M84.4281 106.2C81.325 111.607 76.2897 114.572 73.1763 112.818C73.1507 112.803 73.1303 112.788 73.1048 112.773C73.0996 112.773 73.0946 112.768 73.0895 112.768C66.8476 109.251 60.621 122.112 59.9359 124.91C60.0126 115.175 59.8388 103.484 59.8388 103.484C59.8388 103.484 65.1299 114.653 73.161 99.8504C76.2641 94.4433 81.2995 91.4788 84.4128 93.2322C87.5209 94.9805 87.5312 100.788 84.4281 106.2Z" fill="url(#paint5_linear)"/>
<defs>
<linearGradient id="paint0_linear" x1="3.00587" y1="-3.40681" x2="104.878" y2="57.6179" gradientUnits="userSpaceOnUse">
<stop offset="0.196" stop-color="#FFBBB6"/>
<stop offset="0.7899" stop-color="#FD6091"/>
</linearGradient>
<linearGradient id="paint1_linear" x1="70.6036" y1="13.052" x2="102.55" y2="44.8667" gradientUnits="userSpaceOnUse">
<stop stop-color="#00AEEF"/>
<stop offset="1" stop-color="#006699"/>
</linearGradient>
<linearGradient id="paint2_linear" x1="-28.5264" y1="50.9902" x2="24.5675" y2="78.7388" gradientUnits="userSpaceOnUse">
<stop offset="0.00691689" stop-color="#026C9F"/>
<stop offset="1" stop-color="#016B9F"/>
</linearGradient>
<linearGradient id="paint3_linear" x1="40.1553" y1="90.6322" x2="44.0196" y2="44.3671" gradientUnits="userSpaceOnUse">
<stop offset="0.018" stop-color="#FFBBB6"/>
<stop offset="0.9915" stop-color="#FD6091"/>
</linearGradient>
<linearGradient id="paint4_linear" x1="53.9885" y1="102.062" x2="130.166" y2="56.4773" gradientUnits="userSpaceOnUse">
<stop stop-color="#00AEEF"/>
<stop offset="0.4407" stop-color="#0088C2"/>
<stop offset="0.7979" stop-color="#006FA4"/>
<stop offset="1" stop-color="#006699"/>
</linearGradient>
<linearGradient id="paint5_linear" x1="54.4086" y1="108.817" x2="101.591" y2="108.817" gradientUnits="userSpaceOnUse">
<stop stop-color="#90A6D2"/>
<stop offset="1" stop-color="#EBE8F4"/>
</linearGradient>
</defs>
</svg>
