<svg width="265" height="45" viewBox="0 0 265 45" fill="none" xmlns="http://www.w3.org/2000/svg">
<path d="M40.49 12.1019C42.4848 9.89563 45.1091 9.08689 47.3786 9.08689C49.7369 9.08689 52.0509 10.344 53.6378 12.2779C55.6326 14.79 55.8099 17.849 55.8099 21.216V33.7035H48.4691V21.4779C48.4691 19.9065 48.4691 18.069 47.9284 16.8475C47.3876 15.6344 46.2526 15.186 45.0292 15.186C43.4423 15.186 41.4917 16.0388 40.4988 17.7003V33.695H33.158V0H40.4988V12.1019H40.49Z" fill="#006699"/>
<path d="M76.2096 33.7118L75.527 31.8219C74.0729 33.6678 71.5373 34.2481 69.1347 34.2481C64.6043 34.2481 60.3399 31.3756 60.3399 26.4791C60.3399 20.6356 65.9165 18.7981 70.8547 18.7981C72.2111 18.7981 73.6652 18.9741 75.0216 19.2905V19.1145C75.0216 16.3279 73.9311 14.5805 70.5798 14.5805C67.8579 14.5805 65.553 15.5652 63.3719 16.6442L61.4659 11.6619C64.7727 10.0444 68.4875 9.10571 72.2111 9.10571C78.8693 9.10571 82.3624 13.0154 82.3624 19.3073V33.7306H76.2096V33.7118ZM75.0304 23.3782C73.9843 23.1478 73.08 22.9739 72.1313 22.9739C69.9148 22.9739 67.5122 23.9125 67.5122 26.4791C67.5122 28.281 69.0993 29.3978 70.8193 29.3978C72.5392 29.3978 73.807 28.765 75.0304 27.6483V23.3782Z" fill="#006699"/>
<path d="M94.0657 9.63141L94.7483 12.55C96.4683 9.89542 99.8283 9.08667 102.178 9.08667C108.428 9.08667 113.189 14.7898 113.189 21.7605C113.189 28.6768 108.428 34.248 102.133 34.248C100.006 34.248 97.009 33.6152 95.2449 31.4635V44.944H87.9039V9.63141H94.0657ZM95.2449 25.8902C96.8318 27.6397 98.4631 28.1405 100.369 28.1405C104.04 28.1405 105.76 24.6771 105.76 21.5846C105.76 18.3496 103.765 15.2047 100.458 15.2047C98.5517 15.2047 96.7431 15.7829 95.2449 17.9452V25.8902Z" fill="#006699"/>
<path d="M128.287 34.248C121.08 34.248 115.911 29.3536 115.911 22.0246C115.911 14.7018 121.257 9.08667 128.332 9.08667C135.176 9.08667 140.256 13.7632 140.256 20.1871C140.256 21.1718 140.123 22.3409 139.937 23.464H123.349C123.846 26.479 125.796 28.5008 128.784 28.5008C131.914 28.5008 133.226 27.1997 134.813 25.0375L139.529 28.2285C136.586 32.2701 133.589 34.248 128.287 34.248ZM132.818 18.7016C132.685 16.0029 130.867 14.6599 128.554 14.6599C125.699 14.6599 124.245 16.3193 123.615 18.7016H132.818Z" fill="#006699"/>
<path d="M158.201 16.7761C156.933 15.609 155.346 14.7123 153.44 14.7123C152.535 14.7123 151.489 15.1607 151.489 16.0113C151.489 17.4088 153.121 18.1652 155.071 18.974C158.156 20.2311 162.146 21.7166 162.146 26.4349C162.146 31.7358 157.429 34.2563 152.624 34.2563C148.679 34.2563 145.283 32.729 142.34 29.9863L146.329 25.6702C148.236 27.4721 149.725 28.6328 152.225 28.6328C153.174 28.6328 154.858 28.1845 154.858 27.0593C154.858 25.4858 152.686 24.7651 150.328 23.6944C147.517 22.4373 144.485 20.7318 144.485 16.5477C144.485 11.6093 148.883 9.08667 153.458 9.08667C156.809 9.08667 159.805 10.2118 162.164 12.4537L158.201 16.7761Z" fill="#006699"/>
<path d="M174.567 15.5652V24.3693C174.567 25.134 174.567 25.8108 174.7 26.5232C174.877 27.5079 175.338 28.1407 176.375 28.1407C177.421 28.1407 178.14 27.9123 179 27.4639L181.314 32.7627C179.594 33.7474 177.102 34.2482 175.063 34.2482C171.118 34.2482 168.352 32.0419 167.536 28.633C167.261 27.4639 167.217 26.1628 167.217 24.9057V15.5652H164.451V9.63161H167.217L168.573 4.46484H174.558V9.63161H180.542V15.5652H174.567Z" fill="#006699"/>
<path d="M208.744 21.6727C208.744 28.7734 203.443 34.2481 195.916 34.2481C188.389 34.2481 183.087 28.765 183.087 21.6727C183.087 14.5721 188.389 9.09522 195.916 9.09522C203.443 9.08684 208.744 14.5721 208.744 21.6727ZM195.916 15.2048C192.653 15.2048 190.525 17.9894 190.525 21.6727C190.525 25.354 192.653 28.1406 195.916 28.1406C199.178 28.1406 201.306 25.354 201.306 21.6727C201.306 17.9894 199.178 15.2048 195.916 15.2048Z" fill="#006699"/>
<path d="M219.127 9.63158L219.764 12.7346C221.804 10.036 224.702 9.09521 227.193 9.09521C229.552 9.09521 231.866 10.3524 233.454 12.2862C235.448 14.8005 235.626 17.8574 235.626 21.2243V33.7118H228.285V21.4884C228.285 19.9149 228.285 18.0774 227.744 16.8559C227.204 15.6427 226.068 15.1944 224.845 15.1944C223.258 15.1944 221.308 16.0471 220.315 17.7086V33.7034H212.973V9.6232H219.127V9.63158Z" fill="#006699"/>
<path d="M252.036 34.248C244.829 34.248 239.66 29.3536 239.66 22.0246C239.66 14.7018 245.005 9.08667 252.08 9.08667C258.925 9.08667 264.004 13.7632 264.004 20.1871C264.004 21.1718 263.872 22.3409 263.686 23.464H247.089C247.586 26.479 249.537 28.5008 252.524 28.5008C255.653 28.5008 256.966 27.1997 258.552 25.0375L263.269 28.2285C260.325 32.2701 257.337 34.248 252.036 34.248ZM256.566 18.7016C256.434 16.0029 254.615 14.6599 252.302 14.6599C249.447 14.6599 247.992 16.3193 247.364 18.7016H256.566Z" fill="#006699"/>
<path d="M2.88141 10.0882C2.88141 14.2116 5.06239 16.5477 7.72212 18.1736C7.58914 17.7609 7.37635 17.3837 7.09264 17.0674H13.3962V11.3202C13.2898 11.2322 13.1923 11.1337 13.1036 11.0373C12.6072 11.381 12.0043 11.5821 11.3482 11.5821C9.64598 11.5821 8.26294 10.2118 8.26294 8.52518C8.26294 6.83645 9.64598 5.4662 11.3482 5.4662C12.1284 5.4662 12.8465 5.75533 13.3873 6.23932V0.0710449C7.82852 0.624179 2.88141 3.98907 2.88141 10.0882Z" fill="url(#paint0_linear)"/>
<path d="M16.18 22.6469C16.641 23.1225 16.9159 23.6588 16.9159 24.3084C16.9159 25.8295 14.6462 26.435 13.3607 26.435C9.99171 26.435 7.97032 24.8531 5.39037 22.429L0 28.2536C3.8566 31.8406 8.28062 33.8792 13.3962 34.0112V27.8849C13.937 28.3605 14.6551 28.658 15.4353 28.658C17.1375 28.658 18.5206 27.2877 18.5206 25.6011C18.5117 24.1764 17.5187 22.9821 16.18 22.6469Z" fill="url(#paint1_linear)"/>
<path d="M13.396 20.9165V17.0676H7.08359C7.3673 17.384 7.58007 17.7611 7.71305 18.1739C8.69715 18.7815 9.75219 19.2906 10.7806 19.7474C11.6938 20.1601 12.5892 20.5394 13.396 20.9165Z" fill="url(#paint2_linear)"/>
<path d="M19.0615 14.1321C18.9729 14.4212 18.9197 14.7292 18.9197 15.054C18.9197 15.8271 19.2122 16.5395 19.6998 17.0758H13.3963V20.9247C14.5577 21.4695 15.5507 22.0059 16.189 22.6575C17.6253 23.0074 18.6626 24.3609 18.503 25.9176C18.3611 27.3319 17.2175 28.4842 15.7989 28.6497C14.8769 28.7566 14.0258 28.4486 13.3963 27.9038V34.0281C13.5736 34.0386 13.7421 34.0386 13.9194 34.0386C20.418 34.0386 26.7924 30.636 26.7924 23.4641C26.7836 17.981 22.8205 15.7307 19.0615 14.1321Z" fill="url(#paint3_linear)"/>
<path d="M17.2352 13.3673C15.6837 12.7262 14.2829 12.1018 13.3963 11.3098V17.0674H19.6998C19.2211 16.5311 18.9197 15.8187 18.9197 15.0456C18.9197 14.7208 18.9729 14.4128 19.0615 14.1237C18.4409 13.8597 17.8292 13.6124 17.2352 13.3673Z" fill="url(#paint4_linear)"/>
<path d="M13.3963 6.24783C12.8554 5.77431 12.1373 5.47469 11.3571 5.47469C9.65492 5.47469 8.27185 6.84706 8.27185 8.5337C8.27185 10.2203 9.65492 11.5927 11.3571 11.5927C12.0132 11.5927 12.6161 11.3894 13.1125 11.0374C12.6604 10.5556 12.3944 10.0108 12.3944 9.3592C12.3944 8.20894 13.8041 7.60132 15.0276 7.60132C17.5986 7.60132 19.7441 8.81444 21.4641 10.3963L26.8012 4.56119C23.6184 1.52105 19.5668 0.00830078 15.0364 0.00830078C14.4867 0.00830078 13.9459 0.0355426 13.4051 0.0879227V6.24783H13.3963Z" fill="url(#paint5_linear)"/>
<defs>
<linearGradient id="paint0_linear" x1="2.88036" y1="9.12652" x2="13.3935" y2="9.12652" gradientUnits="userSpaceOnUse">
<stop offset="0.196" stop-color="#FFBBB6"/>
<stop offset="0.7899" stop-color="#FD6091"/>
</linearGradient>
<linearGradient id="paint1_linear" x1="0" y1="28.218" x2="18.5149" y2="28.218" gradientUnits="userSpaceOnUse">
<stop stop-color="#00AEEF"/>
<stop offset="0.4407" stop-color="#0088C2"/>
<stop offset="0.7979" stop-color="#006FA4"/>
<stop offset="1" stop-color="#006699"/>
</linearGradient>
<linearGradient id="paint2_linear" x1="7.08704" y1="18.9931" x2="13.3933" y2="18.9931" gradientUnits="userSpaceOnUse">
<stop stop-color="#00AEEF"/>
<stop offset="0.4407" stop-color="#0088C2"/>
<stop offset="0.7979" stop-color="#006FA4"/>
<stop offset="1" stop-color="#006699"/>
</linearGradient>
<linearGradient id="paint3_linear" x1="13.3936" y1="24.078" x2="26.7872" y2="24.078" gradientUnits="userSpaceOnUse">
<stop offset="0.00691689" stop-color="#EBE8F4"/>
<stop offset="1" stop-color="#90A6D2"/>
</linearGradient>
<linearGradient id="paint4_linear" x1="13.3936" y1="14.1907" x2="19.6997" y2="14.1907" gradientUnits="userSpaceOnUse">
<stop stop-color="#00AEEF"/>
<stop offset="0.4407" stop-color="#0088C2"/>
<stop offset="0.7979" stop-color="#006FA4"/>
<stop offset="1" stop-color="#006699"/>
</linearGradient>
<linearGradient id="paint5_linear" x1="8.27229" y1="5.79316" x2="26.7968" y2="5.79316" gradientUnits="userSpaceOnUse">
<stop stop-color="#00AEEF"/>
<stop offset="0.4407" stop-color="#0088C2"/>
<stop offset="0.7979" stop-color="#006FA4"/>
<stop offset="1" stop-color="#006699"/>
</linearGradient>
</defs>
</svg>
