<svg width="694" height="628" viewBox="0 0 694 628" fill="none" xmlns="http://www.w3.org/2000/svg">
<path d="M627.843 125.649H520.687V48.6617C520.687 21.9646 498.998 0.244141 472.338 0.244141H215.663C189.003 0.244141 167.314 21.9633 167.314 48.6617V125.649H60.1568C23.6775 125.649 -6 155.328 -6 191.806V561.546C-6 598.054 23.6557 627.755 60.1076 627.755H627.894C664.346 627.755 694.001 598.054 694.001 561.546V191.806C694 155.328 664.322 125.649 627.843 125.649ZM194.658 48.6617C194.658 37.042 204.082 27.5879 215.663 27.5879H472.337C483.919 27.5879 493.342 37.042 493.342 48.6617V125.649H457.862V76.8627C457.862 69.3117 451.741 63.1908 444.19 63.1908H243.81C236.259 63.1908 230.138 69.3117 230.138 76.8627V125.649H194.658V48.6617ZM257.482 125.649V90.5346H430.518V125.649H257.482ZM21.3438 191.806C21.3438 170.404 38.7549 152.993 60.1568 152.993H627.843C649.245 152.993 666.656 170.404 666.656 191.806V318.601C666.656 360.785 632.336 395.106 590.151 395.106H575.455V337.121C575.455 329.57 569.334 323.449 561.783 323.449H478.55C470.999 323.449 464.879 329.57 464.879 337.121V395.106H223.123V337.121C223.123 329.57 217.002 323.449 209.451 323.449H126.217C118.666 323.449 112.545 329.57 112.545 337.121V395.106H97.8488C55.6643 395.107 21.3438 360.787 21.3438 318.602V191.806ZM548.112 350.794V453.092H492.222V350.794H548.112ZM195.779 350.794V453.092H139.89V350.794H195.779ZM666.656 561.547C666.656 582.978 649.267 600.412 627.892 600.412H60.1076C38.733 600.411 21.3438 582.976 21.3438 561.547V388.755C40.3408 409.454 67.6053 422.451 97.8488 422.451H112.545V466.764C112.545 474.315 118.666 480.436 126.217 480.436H209.45C217.001 480.436 223.121 474.315 223.121 466.764V422.451H464.876V466.764C464.876 474.315 470.997 480.436 478.548 480.436H561.781C569.332 480.436 575.453 474.315 575.453 466.764V422.451H590.148C620.392 422.451 647.656 409.456 666.654 388.755V561.547H666.656Z" fill="#A5A5A5" fill-opacity="0.2"/>
<path d="M181.831 226.123H506.168C513.719 226.123 519.839 220.002 519.839 212.451C519.839 204.9 513.719 198.779 506.168 198.779H181.831C174.28 198.779 168.159 204.9 168.159 212.451C168.159 220.002 174.28 226.123 181.831 226.123Z" fill="#A5A5A5" fill-opacity="0.2"/>
</svg>
